/* XPM */
static char *result[] = {
/* columns rows colors chars-per-pixel */
"64 64 141 2 ",
"   c #000000",
".  c #0A0104",
"X  c #030A05",
"o  c #000009",
"O  c #08000C",
"+  c #160B05",
"@  c #1B0E06",
"#  c #17000F",
"$  c #1D0110",
"%  c #0C1C14",
"&  c #310A00",
"*  c #29180D",
"=  c #311407",
"-  c #32170A",
";  c #220712",
":  c #321E11",
">  c #0E2117",
",  c #00231D",
"<  c #0F2319",
"1  c #11261B",
"2  c #13291E",
"3  c #352012",
"4  c #002C22",
"5  c #172E22",
"6  c #1E3A2C",
"7  c #003E32",
"8  c #203D2E",
"9  c #432B1A",
"0  c #4F321F",
"q  c #4E192F",
"w  c #4C0035",
"e  c #530039",
"r  c #531B32",
"t  c #5C1E38",
"y  c #5D3C26",
"u  c #543622",
"i  c #63213D",
"p  c #136816",
"a  c #157217",
"s  c #157318",
"d  c #16781A",
"f  c #187E1B",
"g  c #004F3E",
"h  c #244534",
"j  c #274938",
"k  c #2B503D",
"l  c #64412A",
"z  c #6B452D",
"x  c #754328",
"c  c #724A30",
"v  c #794F34",
"b  c #7B5135",
"n  c #600B40",
"m  c #661243",
"M  c #6E2645",
"N  c #712746",
"B  c #712846",
"V  c #762949",
"C  c #7C2C4D",
"Z  c #005543",
"A  c #2E5542",
"S  c #335C47",
"D  c #36624C",
"F  c #38654E",
"G  c #396750",
"H  c #326D56",
"J  c #3C6D54",
"K  c #3F7258",
"L  c #456F55",
"P  c #42755B",
"I  c #44795E",
"U  c #65644A",
"Y  c #467D61",
"T  c #487F63",
"R  c #805437",
"E  c #845A37",
"W  c #812D51",
"Q  c #873055",
"!  c #893156",
"~  c #93355D",
"^  c #973760",
"/  c #983760",
"(  c #9B3961",
")  c #834945",
"_  c #834548",
"`  c #936241",
"'  c #9E6646",
"]  c #9D6845",
"[  c #926E4D",
"{  c #98714F",
"}  c #A56D49",
"|  c #A96D47",
" . c #AC724C",
".. c #B2764E",
"X. c #B3784F",
"o. c #B57851",
"O. c #BC7D54",
"+. c #19851D",
"@. c #1B8C1F",
"#. c #009A1D",
"$. c #1E9622",
"%. c #1F9A23",
"&. c #209D25",
"*. c #00A120",
"=. c #29BE2E",
"-. c #688C34",
";. c #2AC12F",
":. c #2BC530",
">. c #2CC831",
",. c #33CC33",
"<. c #4A8366",
"1. c #4B8568",
"2. c #4E8A6B",
"3. c #478366",
"4. c #508D6E",
"5. c #518F70",
"6. c #539272",
"7. c #599A79",
"8. c #BF8056",
"9. c #C18057",
"0. c #C58459",
"q. c #C9875A",
"w. c #CD895D",
"e. c #D18C5E",
"r. c #D58F60",
"t. c #D79062",
"y. c #DC9464",
"u. c #E19766",
"i. c #E29867",
"p. c #E79B69",
"a. c #EC9F6C",
"s. c #EEA06D",
"d. c #F2A36F",
"f. c #F6A671",
"g. c #F8A772",
"h. c #FEAD75",
"j. c #FFB077",
"k. c #FFB279",
"l. c #FFB97E",
"z. c #FFBC81",
"x. c None",
/* pixels */
"x.x.x.x.x.x.x.x.x.x.x.x.x.x.x.x.x.x.x.x.x.x.x.x.x.x.x.x.x.x.x.x.x.x.x.x.x.x.x.x.x.x.x.x.x.x.x.x.x.x.x.x.x.x.x.x.x.x.x.x.x.x.x.x.",
"x.x.x.x.x.x.x.x.x.x.x.x.x.x.x.x.x.x.x.x.x.x.x.x.x.x.x.x.x.x.x.x.x.x.x.x.x.x.x.x.x.x.x.x.x.x.x.x.x.x.x.x.x.x.x.x.x.x.x.x.x.x.x.x.",
"x.x.x.x.x.x.x.x.x.x.x.x.x.x.x.x.x.x.x.x.x.x.x.x.x.x.x.x.x.x.x.x.x.x.x.x.x.x.x.x.x.x.x.x.x.x.x.x.x.x.x.x.x.x.x.x.x.x.x.x.x.x.x.x.",
"x.x.x.x.x.x.x.x.x.x.x.x.x.x.x.x.x.x.x.x.x.x.x.x.x.x.x.x.x.x.x.x.x.x.x.x.x.x.x.x.x.x.x.x.x.x.x.x.x.x.x.x.x.x.x.x.x.x.x.x.x.x.x.x.",
"x.x.x.x.x.x.x.x.x.x.x.x.x.x.x.x.x.x.x.x.x.x.x.x.x.x.x.x.x.x.x.x.x.x.x.x.x.x.x.x.x.x.x.x.x.x.x.x.x.x.x.x.x.x.x.x.x.x.x.x.x.x.x.x.",
"x.x.x.x.x.x.x.x.x.x.x.x.x.x.x.x.x.x.x.x.x.x.x.x.x.x.x.x.x.x.x.x.x.x.x.x.x.x.x.x.x.x.x.x.x.x.x.x.x.x.x.x.x.x.x.x.x.x.x.x.x.x.x.x.",
"x.x.x.x.x.x.x.x.x.x.x.x.x.x.x.x.x.x.x.x.x.x.x.x.x.x.x.x.x.x.x.x.x.x.x.x.x.x.x.x.x.x.x.x.x.x.x.x.x.x.x.x.x.x.x.x.x.x.x.x.x.x.x.x.",
"x.x.x.x.x.x.x.x.x.x.x.x.x.x.x.x.x.x.x.x.x.x.x.x.x.x.x.x.x.x.x.x.x.x.x.x.x.x.x.x.x.x.x.x.x.x.x.x.x.x.x.x.x.x.x.x.x.x.x.x.x.x.x.x.",
"x.x.x.x.x.x.x.x.x.x.x.x.x.x.x.x.x.x.x.x.x.x.x.x.                                      x.x.x.x.x.x.x.x.x.x.x.x.x.x.x.x.x.x.x.x.x.",
"x.x.x.x.x.x.x.x.x.x.x.x.x.x.x.x.x.x.x.x.x.x.x.x.                                      x.x.x.x.x.x.x.x.x.x.x.x.x.x.x.x.x.x.x.x.x.",
"x.x.x.x.x.x.x.x.x.x.x.x.x.x.x.x.x.x.x.x.x.x.x.x.r i t t t t t t t t t t t t t t t i r x.x.x.x.x.x.x.x.x.x.x.x.x.x.x.x.x.x.x.x.x.",
"x.x.x.x.x.x.x.x.x.x.x.x.x.x.x.x.x.x.x.x.x.      C / ~ / ~ ~ ~ ~ ~ ~ ~ ~ ~ ~ ~ ~ ~ / C       x.x.x.x.x.x.x.x.x.x.x.x.x.x.x.x.x.x.",
"x.x.x.x.x.x.x.x.x.x.x.x.x.x.x.x.x.x.x.x.x.      N ( ~ ~ ~ ~ ~ ~ ~ ~ ~ ~ ~ ~ ~ ~ ~ / V       x.x.x.x.x.x.x.x.x.x.x.x.x.x.x.x.x.x.",
"x.x.x.x.x.x.x.x.x.x.x.x.x.x.x.x.x.x.x.x.x.r t r C ~ ~ ~ ~ ~ ~ ~ ~ ~ ~ ~ ~ ~ ~ ~ ~ ~ W r t r x.x.x.x.x.x.x.x.x.x.x.x.x.x.x.x.x.x.",
"x.x.x.x.x.x.x.x.x.x.x.x.x.x.x.x.x.x.      V / ~ ~ ~ ~ ~ ~ ! ~ ~ ~ ~ ~ ~ ~ ~ ~ ~ ~ ~ ~ ~ ~ C       x.x.x.x.x.x.x.x.x.x.x.x.x.x.x.",
"x.x.x.x.x.x.x.x.x.x.x.x.x.x.x.x.x.x.      V / ~ ~ ~ ~ ~ ~ ~ ~ ~ ~ ~ ~ ~ ~ ~ ~ ~ ~ ~ ~ ~ ( C       x.x.x.x.x.x.x.x.x.x.x.x.x.x.x.",
"x.x.x.x.x.x.x.x.x.x.x.x.x.x.x.x.x.x.q r r C ^ ~ ~ ~ ! ~ ~ ~ ~ ~ ! ~ ~ ~ ~ ~ ~ ~ ~ ! ~ ~ ^ C r t q x.x.x.x.x.x.x.x.x.x.x.x.x.x.x.",
"x.x.x.x.x.x.x.x.x.x.x.x.x.x.x.      C ~ ~ ~ ~ ~ ~ ~ ~ ~ ~ ~ ~ ~ ~ ~ ~ ~ ~ ~ ~ ~ ~ ~ ~ ~ ~ ~ ~ / C .     x.x.x.x.x.x.x.x.x.x.x.x.",
"x.x.x.x.x.x.x.x.x.x.x.x.x.x.x.      C ( ~ ~ ~ ~ ~ ~ ~ ~ ~ / ~ ~ ~ ~ ~ ~ ~ ^ / ~ ~ ~ ~ ~ ~ ~ ~ ( C .     x.x.x.x.x.x.x.x.x.x.x.x.",
"x.x.x.x.x.x.x.x.x.x.x.x.x.x.x.      C ~ ~ ~ ~ ~ ~ ~ ~ Q C C ! ~ ~ ~ ~ ~ ! C C ! ~ ~ ~ ~ ~ ~ ~ / C .     x.x.x.x.x.x.x.x.x.x.x.x.",
"x.x.x.x.x.x.x.x.x.x.x.x.x.x.x.      C / ~ ~ ~ ~ ~ ~ ^ M     M / ~ ~ ~ ~ N     i ~ ~ ~ ~ ~ ~ ~ ( C .     x.x.x.x.x.x.x.x.x.x.x.x.",
"x.x.x.x.x.x.x.x.x.x.x.x.x.x.x.      C ( ~ ~ / ~ ~ / ( e     n ( ^ ^ / ( m     w / / / ~ / ~ ~ ( W .     x.x.x.x.x.x.x.x.x.x.x.x.",
"x.x.x.x.x.x.x.x.x.x.x.x.x.x.x.      N ! C Q W W W W W _ E E _ W W W W W _ E E ) W W Q C W W W ! V .     x.x.x.x.x.x.x.x.x.x.x.x.",
"x.x.x.x.x.x.x.x.x.x.x.x.x.x.x.x.x.x.; ; ; ; ; ; ; O   9.j.j.o.  $ ; $    .h.k.0.  o ; ; ; ; ; ; ; x.x.x.x.x.x.x.x.x.x.x.x.x.x.x.",
"x.x.x.x.x.x.x.x.x.x.x.x.x.x.x.x.x.x.                  w.z.z.O.          o.l.z.w.                  x.x.x.x.x.x.x.x.x.x.x.x.x.x.x.",
"x.x.x.x.x.x.x.x.x.x.x.x.x.x.x.x.x.x.      y E b b v c 9.s.a.O.z b b v z o.a.d.0.c v b b R l       x.x.x.x.x.x.x.x.x.x.x.x.x.x.x.",
"x.x.x.x.x.x.x.x.x.x.x.x.x.x.x.x.x.x.      q.h.f.f.f.h...+ * 9.g.f.f.f.h.0.3    .g.g.f.d.h.e.      x.x.x.x.x.x.x.x.x.x.x.x.x.x.x.",
"x.x.x.x.x.x.x.x.x.x.x.x.x.x.x.x.x.x.      e.l.j.j.j.l...    9.z.k.j.j.l.0.     .k.k.j.k.l.t.      x.x.x.x.x.x.x.x.x.x.x.x.x.x.x.",
"x.x.x.x.x.x.x.x.x.x.x.x.x.x.x.x.x.x.      e.k.h.h.h.j...    O.k.h.h.h.k.0.     .h.h.h.h.k.e.      x.x.x.x.x.x.x.x.x.x.x.x.x.x.x.",
"x.x.x.x.x.x.x.x.x.x.x.x.x.x.x.x.x.x.      e.k.h.h.h.k...    O.j.h.h.h.k.0.     .k.h.h.h.k.t.      x.x.x.x.x.x.x.x.x.x.x.x.x.x.x.",
"x.x.x.x.x.x.x.x.x.x.x.x.x.x.x.x.x.x.      t.z.k.h.h.j. .    O.k.h.h.h.k.9.    } j.h.j.k.l.y.      x.x.x.x.x.x.x.x.x.x.x.x.x.x.x.",
"x.x.x.x.x.x.x.x.x.x.x.x.x.x.x.x.x.x.      0.g.a.g.j.j.O.9 u q.k.h.h.h.k.w.y 3 O.j.h.g.s.g.w.      x.x.x.x.x.x.x.x.x.x.x.x.x.x.x.",
"x.x.x.x.x.x.x.x.x.x.x.x.x.x.x.x.x.x.x.x.x.l l y e.k.h.f.a.a.f.h.h.h.h.h.g.a.s.d.h.k.t.y l l x.x.x.x.x.x.x.x.x.x.x.x.x.x.x.x.x.x.",
"x.x.x.x.x.x.x.x.x.x.x.x.x.x.x.x.x.x.x.x.x.      q.l.k.k.k.l.k.k.j.h.j.j.k.l.l.k.k.l.e.      x.x.x.x.x.x.x.x.x.x.x.x.x.x.x.x.x.x.",
"x.x.x.x.x.x.x.x.x.x.x.x.x.x.x.x.x.x.x.x.x.5 4 , 9.h.d.d.f.d.d.d.d.d.d.d.d.d.d.d.d.g.q., 4 5 x.x.x.x.x.x.x.x.x.x.x.x.x.x.x.x.x.x.",
"x.x.x.x.x.x.x.x.x.x.x.x.x.x.x.x.x.x.      J 2.1.U x c c c c c c c c c c c c c c c x U 1.2.J       x.x.x.x.x.x.x.x.x.x.x.x.x.x.x.",
"x.x.x.x.x.x.x.x.x.x.x.x.x.x.x.x.x.x.      P 7.6.Z                                   g 6.7.I       x.x.x.x.x.x.x.x.x.x.x.x.x.x.x.",
"x.x.x.x.x.x.x.x.x.x.x.x.x.x.x.x.x.x.1 1 % P 6.5.D   2 2 2 2 %           % 2 2 2 2   S 6.6.I 1 < 2 x.x.x.x.x.x.x.x.x.x.x.x.x.x.x.",
"x.x.x.x.x.x.x.x.x.x.x.x.x.x.x.      J 2.3.2.4.4.1.Y <.T <.1.S           A 1.<.Y T T 1.4.4.2.<.1.L X     x.x.x.x.x.x.x.x.x.x.x.x.",
"x.x.x.x.x.x.x.x.x.x.x.x.x.x.x.      Y 7.6.6.6.5.6.6.6.6.6.6.F           D 6.6.6.6.6.5.6.4.6.6.7.3.X     x.x.x.x.x.x.x.x.x.x.x.x.",
"x.x.x.x.x.x.x.x.x.x.x.x.x.x.x.      K 4.2.2.2.2.2.4.4.4.5.6.G   % < %   D 6.5.4.4.4.2.2.4.2.2.4.P X     x.x.x.x.x.x.x.x.x.x.x.x.",
"x.x.x.x.x.x.x.x.x.x.x.x.x.x.x.      6 j h j h h P 6.4.4.5.2.1.Y Y Y Y Y <.5.4.4.4.5.I h h h h j 6       x.x.x.x.x.x.x.x.x.x.x.x.",
"x.x.x.x.x.x.x.x.x.x.x.x.x.x.x.  .               H 6.6.6.2.5.6.6.6.6.6.6.5.4.4.5.4.7.H               .   x.x.x.x.x.x.x.x.x.x.x.x.",
"x.x.x.x.x.x.x.x.x.x.x.x.x.x.x.      * 3 : : - & L 5.2.2.6.2.2.4.4.4.4.4.4.4.4.2.4.5.P = = : : 3 *       x.x.x.x.x.x.x.x.x.x.x.x.",
"x.x.x.x.x.x.x.x.x.x.x.x.x.x.x.      O.p.y.y.i.i.{ 7 h P 6.4.4.4.4.4.4.4.4.2.6.Y h 7 [ u.u.u.y.p.8.+     x.x.x.x.x.x.x.x.x.x.x.x.",
"x.x.x.x.x.x.x.x.x.x.x.x.x.x.x.      y.l.k.k.k.l...    G 6.5.5.4.5.5.5.5.5.5.6.J     | l.k.j.k.l.i.@     x.x.x.x.x.x.x.x.x.x.x.x.",
"x.x.x.x.x.x.x.x.x.x.x.x.x.x.x.      r.k.h.h.h.j. .    J 6.4.4.4.4.2.4.4.4.4.6.J     } h.h.h.h.k.y.@     x.x.x.x.x.x.x.x.x.x.x.x.",
"x.x.x.x.x.x.x.x.x.x.x.x.x.x.x.      r.k.h.h.h.h. .    8 k k k k k k k k k k A 6     } h.j.h.h.k.t.@     x.x.x.x.x.x.x.x.x.x.x.x.",
"x.x.x.x.x.x.x.x.x.x.x.x.x.x.x.      t.l.h.j.k.k. .                                  } k.k.j.h.l.y.@     x.x.x.x.x.x.x.x.x.x.x.x.",
"x.x.x.x.x.x.x.x.x.x.x.x.x.x.x.      t.k.h.h.h.k. .                                  } k.h.h.h.k.y.@     x.x.x.x.x.x.x.x.x.x.x.x.",
"x.x.x.x.x.x.x.x.x.x.x.x.x.x.x.x.x.x.` } ] ] ' ' -.*.&.&.&.&.&.&.&.&.%.&.&.&.&.&.&.*.-.' ' ] ] } ` x.x.x.x.x.x.x.x.x.x.x.x.x.x.x.",
"x.x.x.x.x.x.x.x.x.x.x.x.x.x.x.x.x.x.            #.,.:.:.:.:.>.>.:.>.>.:.:.:.;.;.:.,.#.            x.x.x.x.x.x.x.x.x.x.x.x.x.x.x.",
"x.x.x.x.x.x.x.x.x.x.x.x.x.x.x.x.x.x.            $.;.=.=.=.=.=.;.:.=.=.=.=.=.=.=.=.;.%.            x.x.x.x.x.x.x.x.x.x.x.x.x.x.x.",
"x.x.x.x.x.x.x.x.x.x.x.x.x.x.x.x.x.x.x.x.x.      $.:.=.=.=.=.&.a d d d a &.=.=.=.=.:.%.      x.x.x.x.x.x.x.x.x.x.x.x.x.x.x.x.x.x.",
"x.x.x.x.x.x.x.x.x.x.x.x.x.x.x.x.x.x.x.x.x.      &.;.=.=.=.;.+.          +.;.;.=.=.:.&.      x.x.x.x.x.x.x.x.x.x.x.x.x.x.x.x.x.x.",
"x.x.x.x.x.x.x.x.x.x.x.x.x.x.x.x.x.x.x.x.x.      &.;.;.;.;.>.@.          +.:.;.;.:.>.&.      x.x.x.x.x.x.x.x.x.x.x.x.x.x.x.x.x.x.",
"x.x.x.x.x.x.x.x.x.x.x.x.x.x.x.x.x.x.x.x.x.x.x.x.a +.f f f +.p x.x.x.x.x.p +.f f +.+.a x.x.x.x.x.x.x.x.x.x.x.x.x.x.x.x.x.x.x.x.x.",
"x.x.x.x.x.x.x.x.x.x.x.x.x.x.x.x.x.x.x.x.x.x.x.x.            x.x.x.x.x.x.x.            x.x.x.x.x.x.x.x.x.x.x.x.x.x.x.x.x.x.x.x.x.",
"x.x.x.x.x.x.x.x.x.x.x.x.x.x.x.x.x.x.x.x.x.x.x.x.              x.x.x.x.x.x.            x.x.x.x.x.x.x.x.x.x.x.x.x.x.x.x.x.x.x.x.x.",
"x.x.x.x.x.x.x.x.x.x.x.x.x.x.x.x.x.x.x.x.x.x.x.x.x.x.x.x.x.x.x.x.x.x.x.x.x.x.x.x.x.x.x.x.x.x.x.x.x.x.x.x.x.x.x.x.x.x.x.x.x.x.x.x.",
"x.x.x.x.x.x.x.x.x.x.x.x.x.x.x.x.x.x.x.x.x.x.x.x.x.x.x.x.x.x.x.x.x.x.x.x.x.x.x.x.x.x.x.x.x.x.x.x.x.x.x.x.x.x.x.x.x.x.x.x.x.x.x.x.",
"x.x.x.x.x.x.x.x.x.x.x.x.x.x.x.x.x.x.x.x.x.x.x.x.x.x.x.x.x.x.x.x.x.x.x.x.x.x.x.x.x.x.x.x.x.x.x.x.x.x.x.x.x.x.x.x.x.x.x.x.x.x.x.x.",
"x.x.x.x.x.x.x.x.x.x.x.x.x.x.x.x.x.x.x.x.x.x.x.x.x.x.x.x.x.x.x.x.x.x.x.x.x.x.x.x.x.x.x.x.x.x.x.x.x.x.x.x.x.x.x.x.x.x.x.x.x.x.x.x.",
"x.x.x.x.x.x.x.x.x.x.x.x.x.x.x.x.x.x.x.x.x.x.x.x.x.x.x.x.x.x.x.x.x.x.x.x.x.x.x.x.x.x.x.x.x.x.x.x.x.x.x.x.x.x.x.x.x.x.x.x.x.x.x.x."
};
