/* XPM */
static char *result[] = {
/* columns rows colors chars-per-pixel */
"64 64 105 2 ",
"   c #583C00",
".  c #593C00",
"X  c #5A3D00",
"o  c #5B3D00",
"O  c #5C3D00",
"+  c #5C3E00",
"@  c #5D3E00",
"#  c #5E3F00",
"$  c #603F00",
"%  c #5F4100",
"&  c #634000",
"*  c #654300",
"=  c #664300",
"-  c #674300",
";  c #684400",
":  c #694400",
">  c #694500",
",  c #6A4500",
"<  c #6B4500",
"1  c #6C4500",
"2  c #6C4600",
"3  c #6D4600",
"4  c #6E4600",
"5  c #704701",
"6  c #714701",
"7  c #724701",
"8  c #734800",
"9  c #724801",
"0  c #734801",
"q  c #754901",
"w  c #744902",
"e  c #754902",
"r  c #764902",
"t  c #774A03",
"y  c #7A4B05",
"u  c #804E06",
"i  c #844F0C",
"p  c #86500E",
"a  c #89510F",
"s  c #995B0E",
"d  c #995B0F",
"f  c #885110",
"g  c #895110",
"h  c #8A5110",
"j  c #8A5210",
"k  c #8B5210",
"l  c #8B5211",
"z  c #8C5211",
"x  c #8F5510",
"c  c #905510",
"v  c #9C5D11",
"b  c #995818",
"n  c #A15F11",
"m  c #A16011",
"M  c #A26011",
"N  c #A46112",
"B  c #AA601F",
"V  c #AF6124",
"C  c #B46423",
"Z  c #B06224",
"A  c #B46424",
"S  c #B56524",
"D  c #B66524",
"F  c #B86625",
"G  c #B96726",
"H  c #BC6729",
"J  c #BD6729",
"K  c #BF6A28",
"L  c #BE682A",
"P  c #C26D24",
"I  c #C16A29",
"U  c #41C304",
/*"U  c #C26B29",*/
"Y  c #C36B29",
"T  c #C0692B",
"R  c #C1692B",
"E  c #C36C29",
"W  c #C46C2A",
"Q  c #C56C2B",
"!  c #C66D2A",
"~  c #C66D2B",
"^  c #C76D2B",
"/  c #C86E2B",
"(  c #CA6F2D",
")  c #CC702D",
"_  c #D87D21",
"`  c #D17529",
"'  c #D2762A",
"]  c #D7782B",
"[  c #E08125",
"{  c #EA8726",
"}  c #EB8826",
"|  c #EE8A26",
" . c #F18B27",
".. c #F48C2B",
"X. c #F58C2B",
"o. c #FB8F2C",
"O. c #FF932B",
"+. c #FF942B",
"@. c #FF962B",
"#. c #FF952C",
"$. c #FF972C",
"%. c #FF972D",
"&. c #FF982D",
"*. c #FF9A2D",
"=. c #FF9C2F",
/* pixels */
"e e e e e e e e e e e e e 0 < j S ^ Y U U U U U U U U U U U U U U U U U U U U U U U U U U U U U U U U U U U U U U U U U U U U U ",
"0 0 0 9 6 5 5 5 5 5 5 6 w 0 < j S ^ Y U U U U U U U U U U U U U U U U U U U U U U U U U U U U U U U U U U U U U U U U U U U U U ",
"< < 2 ; $ O @ @ @ + X & 5 q 1 j S ^ Y U U U U U U U U U U U U U U U U U U U U U U U U U U U U U U U U U U U U U U U U U U U U U ",
"j h f x v M n n n m N s u 4 , j S ^ Y U U U U U U U U U U U U U U U U U U U U U U U U U U U U U U U U U U U U U U U U U U U U U ",
"S A V P [ | } { { }  ._ s $ - j S ^ Y U U U U U U U U U U U U U U U U U U U U U U U U U U U U U U U U U U U U U U U U U U U U U ",
"^ Q T ] o.*.&.%.%.&.=. .N   = k D / W Y Y Y Y Y Y Y Y Y Y Y E Y U U U U U U U U U U U U U U U U U U U U U U U U U U U U U U U U ",
"Y U J ' X.$.+.+.+.#.&.} m X * z G ) / ^ ^ ^ ^ ^ ^ ^ ^ ^ ^ ^ ^ ! Y U U U U U U U U U U U U U U U U U U U U U U U U U U U U U U U ",
"U I H ` ..@.+.O.O.+.%.{ n o ; p B G D S S S S S S S S S S S C F K Y U U U U U U U U U U U U U U U U U U U U U U U U U U U U U U ",
"U I H ` ..@.+.O.O.+.%.{ n + 4 y p z k j j j j j j j j j j a i b F ! Y U U U U U U U U U U U U U U U U U U U U U U U U U U U U U ",
"U I H ` ..@.+.O.O.+.%.{ n @ 6 8 1 ; : ; - = = = = = = - , > % i C ^ Y U U U U U U U U U U U U U U U U U U U U U U U U U U U U U ",
"U I H ` ..@.+.O.O.+.%.{ n @ 6 8 1 ; , = # . X X X X   $ 4 8 > a S ^ Y U U U U U U U U U U U U U U U U U U U U U U U U U U U U U ",
"U I H ` ..@.+.O.O.+.%.{ n + 4 y p l g x v M n n n m N s u 4 , j S ^ Y U U U U U U U U U U U U U U U U U U U U U U U U U U U U U ",
"U I H ` ..@.+.O.O.+.%.{ n o ; p B F Z P [ | } { { }  ._ s $ - j S ^ Y U U U U U U U U U U U U U U U U U U U U U U U U U U U U U ",
"U I H ` ..@.+.O.O.+.%.{ n X * z G ( R ] o.*.&.%.%.&.=. .N   = k D / W Y Y Y Y Y Y Y Y Y Y Y E Y U U U U U U U U U U U U U U U U ",
"U I H ` ..@.+.O.O.+.%.{ n X = k D ~ L ' X.$.+.+.+.#.&.} m X * z G ) / ^ ^ ^ ^ ^ ^ ^ ^ ^ ^ ^ ^ ! Y U U U U U U U U U U U U U U U ",
"U I H ` ..@.+.O.O.+.%.{ n X = j S Q J ` ..@.+.O.O.+.%.{ n o ; p B G D S S S S S S S S S S S C F K Y U U U U U U U U U U U U U U ",
"U I H ` ..@.+.O.O.+.%.{ n X = j S Q J ` ..@.+.O.O.+.%.{ n + 4 y p z k j j j j j j j j j j a i b F ! Y U U U U U U U U U U U U U ",
"U I H ` ..@.+.O.O.+.%.{ n X = j S Q J ` ..@.+.O.O.+.%.{ n @ 6 8 1 ; : ; - = = = = = = - , > % i C ^ Y U U U U U U U U U U U U U ",
"U I H ` ..@.+.O.O.+.%.{ n X = j S Q J ` ..@.+.O.O.+.%.{ n @ 6 8 1 ; , = # . X X X X   $ 4 8 > a S ^ Y U U U U U U U U U U U U U ",
"U I H ` ..@.+.O.O.+.%.{ n X = j S Q J ` ..@.+.O.O.+.%.{ n + 4 y p l g x v M n n n m N s u 4 , j S ^ Y U U U U U U U U U U U U U ",
"U I H ` ..@.+.O.O.+.%.{ n X = j S Q J ` ..@.+.O.O.+.%.{ n o ; p B F Z P [ | } { { }  ._ s $ - j S ^ Y U U U U U U U U U U U U U ",
"U I H ` ..@.+.O.O.+.%.{ n X = j S Q J ` ..@.+.O.O.+.%.{ n X * z G ( R ] o.*.&.%.%.&.=. .N   = k D / W Y Y Y Y Y Y Y Y Y Y Y Y Y ",
"U I H ` ..@.+.O.O.+.%.{ n X = j S Q J ` ..@.+.O.O.+.%.{ n X = k D ~ L ' X.$.+.+.+.#.&.} m X * z G ) / ^ ^ ^ ^ ^ ^ ^ ^ ^ ^ ^ ^ ^ ",
"U I H ` ..@.+.O.O.+.%.{ n X = j S Q J ` ..@.+.O.O.+.%.{ n X = j S Q J ` ..@.+.O.O.+.%.{ n o ; p B G D S S S S S S S S S S S S S ",
"U I H ` ..@.+.O.O.+.%.{ n X = j S Q J ` ..@.+.O.O.+.%.{ n X = j S Q J ` ..@.+.O.O.+.%.{ n + 4 y p z k j j j j j j j j j j j j j ",
"Y U J ' X.$.+.+.+.#.&.} m X = j S Q J ` ..@.+.O.O.+.%.{ n X = j S Q J ` ..@.+.O.O.+.%.{ n @ 6 8 1 ; : ; - = = = = = = - , 1 < < ",
"^ Q T ] o.*.&.%.%.&.=. .N   = j S Q J ` ..@.+.O.O.+.%.{ n X = j S Q J ` ..@.+.O.O.+.%.{ n @ 6 8 1 ; , = # . X X X X   $ 4 q 0 0 ",
"S A V P [ | } { { }  ._ s $ - j S Q J ` ..@.+.O.O.+.%.{ n X = j S Q J ` ..@.+.O.O.+.%.{ n + 4 y p l g x v M n n n m N s u 5 w e ",
"j j f c v M n n n m N d u 4 , j S Q J ` ..@.+.O.O.+.%.{ n X = j S Q J ` ..@.+.O.O.+.%.{ n o ; p B F Z P [ | } { { }  ._ s & 6 e ",
"< < 2 ; $ O @ @ @ + o & 5 q 1 j S Q J ` ..@.+.O.O.+.%.{ n X = j S Q J ` ..@.+.O.O.+.%.{ n X * z G ( R ] o.*.&.%.%.&.=. .N o 5 e ",
"0 0 0 0 6 5 5 6 6 5 5 7 w 0 < j S Q J ` ..@.+.O.O.+.%.{ n X = j S Q J ` ..@.+.O.O.+.%.{ n X = k D ~ L ' X.$.+.+.+.#.&.} m + 5 e ",
"e e e e e e e e e e e e e 0 < j S Q J ` ..@.+.O.O.+.%.{ n X = j S Q J ` ..@.+.O.O.+.%.{ n X = j S Q J ` ..@.+.O.O.+.%.{ n @ 5 e ",
"e e e e e e e e e e e e e 0 < j S Q J ` ..@.+.O.O.+.%.{ n X = j S Q J ` ..@.+.O.O.+.%.{ n X = j S Q J ` ..@.+.O.O.+.%.{ n @ 5 e ",
"e e e e e e e e e e e e e 0 < k D ~ L ' X.$.+.+.+.#.&.} m X = j S Q J ` ..@.+.O.O.+.%.{ n X = j S Q J ` ..@.+.O.O.+.%.{ n @ 5 e ",
"e e e e e e e e e e e e e 0 , z G ( R ] o.*.&.%.%.&.=. .N   = j S Q J ` ..@.+.O.O.+.%.{ n X = j S Q J ` ..@.+.O.O.+.%.{ n @ 5 e ",
"e e e e e e e e e e e e e 0 3 p B F Z P [ | } { { }  ._ s $ - j S Q J ` ..@.+.O.O.+.%.{ n X = j S Q J ` ..@.+.O.O.+.%.{ n @ 5 e ",
"e e e e e e e e e e e e e e 0 y p z g c v M n n n m N d u 4 , j S Q J ` ..@.+.O.O.+.%.{ n X = j S Q J ` ..@.+.O.O.+.%.{ n @ 5 e ",
"e e e e e e e e e e e e e e r 0 3 < 2 ; $ O @ @ @ + o & 5 q 1 j S Q J ` ..@.+.O.O.+.%.{ n X = j S Q J ` ..@.+.O.O.+.%.{ n @ 5 e ",
"e e e e e e e e e e e e e e e e 0 0 0 0 6 5 5 6 6 5 5 7 w 0 < j S Q J ` ..@.+.O.O.+.%.{ n X = j S Q J ` ..@.+.O.O.+.%.{ n @ 5 e ",
"e e e e e e e e e e e e e e e e e e e e e e e e e e e e e 0 < j S Q J ` ..@.+.O.O.+.%.{ n X = j S Q J ` ..@.+.O.O.+.%.{ n @ 5 e ",
"e e e e e e e e e e e e e e e e e e e e e e e e e e e e e 0 < j S Q J ` ..@.+.O.O.+.%.{ n X = j S Q J ` ..@.+.O.O.+.%.{ n @ 5 e ",
"e e e e e e e e e e e e e e e e e e e e e e e e e e e e e 0 < k D ~ L ' X.$.+.+.+.#.&.} m X = j S Q J ` ..@.+.O.O.+.%.{ n @ 5 e ",
"e e e e e e e e e e e e e e e e e e e e e e e e e e e e e 0 , z G ( R ] o.*.&.%.%.&.=. .N   = j S Q J ` ..@.+.O.O.+.%.{ n @ 5 e ",
"e e e e e e e e e e e e e e e e e e e e e e e e e e e e e 0 3 p B F Z P [ | } { { }  ._ s $ - j S Q J ` ..@.+.O.O.+.%.{ n @ 5 e ",
"e e e e e e e e e e e e e e e e e e e e e e e e e e e e e e 0 y p z g c v M n n n m N d u 4 , j S Q J ` ..@.+.O.O.+.%.{ n @ 5 e ",
"e e e e e e e e e e e e e e e e e e e e e e e e e e e e e e r 0 3 < 2 ; $ O @ @ @ + o & 5 q 1 j S Q J ` ..@.+.O.O.+.%.{ n @ 5 e ",
"e e e e e e e e e e e e e e e e e e e e e e e e e e e e e e e e 0 0 0 0 6 5 5 6 6 5 5 7 w 0 < j S Q J ` ..@.+.O.O.+.%.{ n @ 5 e ",
"e e e e e e e e e e e e e e e e e e e e e e e e e e e e e e e e e e e e e e e e e e e e e 0 < j S Q J ` ..@.+.O.O.+.%.{ n @ 5 e ",
"e e e e e e e e e e e e e e e e e e e e e e e e e e e e e e e e e e e e e e e e e e e e e 0 < j S Q J ` ..@.+.O.O.+.%.{ n @ 5 e ",
"e e e e e e e e e e e e e e e e e e e e e e e e e e e e e e e e e e e e e e e e e e e e e 0 < k D ~ L ' X.$.+.+.+.#.&.} m + 5 e ",
"e e e e e e e e e e e e e e e e e e e e e e e e e e e e e e e e e e e e e e e e e e e e e 0 , z G ( R ] o.*.&.%.%.&.=. .N X 5 e ",
"e e e e e e e e e e e e e e e e e e e e e e e e e e e e e e e e e e e e e e e e e e e e e 0 3 p B F Z P [ | } { { }  ._ s & 6 e ",
"e e e e e e e e e e e e e e e e e e e e e e e e e e e e e e e e e e e e e e e e e e e e e e 0 y p z g c v M n n n m N d u 5 w e ",
"e e e e e e e e e e e e e e e e e e e e e e e e e e e e e e e e e e e e e e e e e e e e e e r 0 3 < 2 ; $ O @ @ @ + o & 5 t e e ",
"e e e e e e e e e e e e e e e e e e e e e e e e e e e e e e e e e e e e e e e e e e e e e e e e 0 0 0 0 6 5 5 6 6 5 5 7 w e e e ",
"e e e e e e e e e e e e e e e e e e e e e e e e e e e e e e e e e e e e e e e e e e e e e e e e e e e e e e e e e e e e e e e e ",
"e e e e e e e e e e e e e e e e e e e e e e e e e e e e e e e e e e e e e e e e e e e e e e e e e e e e e e e e e e e e e e e e ",
"e e e e e e e e e e e e e e e e e e e e e e e e e e e e e e e e e e e e e e e e e e e e e e e e e e e e e e e e e e e e e e e e ",
"e e e e e e e e e e e e e e e e e e e e e e e e e e e e e e e e e e e e e e e e e e e e e e e e e e e e e e e e e e e e e e e e ",
"e e e e e e e e e e e e e e e e e e e e e e e e e e e e e e e e e e e e e e e e e e e e e e e e e e e e e e e e e e e e e e e e ",
"e e e e e e e e e e e e e e e e e e e e e e e e e e e e e e e e e e e e e e e e e e e e e e e e e e e e e e e e e e e e e e e e ",
"e e e e e e e e e e e e e e e e e e e e e e e e e e e e e e e e e e e e e e e e e e e e e e e e e e e e e e e e e e e e e e e e ",
"e e e e e e e e e e e e e e e e e e e e e e e e e e e e e e e e e e e e e e e e e e e e e e e e e e e e e e e e e e e e e e e e ",
"e e e e e e e e e e e e e e e e e e e e e e e e e e e e e e e e e e e e e e e e e e e e e e e e e e e e e e e e e e e e e e e e "
};
