/* XPM */
static char *result[] = {
/* columns rows colors chars-per-pixel */
"64 64 228 2 ",
"   c #00000B",
".  c #00000C",
"X  c #00000D",
"o  c #00000F",
"O  c #00010F",
"+  c #00030F",
"@  c #00040F",
"#  c #00070F",
"$  c #00080F",
"%  c #00090F",
"&  c #000A0F",
"*  c #000B0F",
"=  c #16160F",
"-  c #000010",
";  c #000011",
":  c #000211",
">  c #000311",
",  c #000012",
"<  c #000411",
"1  c #000511",
"2  c #000611",
"3  c #000A10",
"4  c #000B10",
"5  c #000C10",
"6  c #000D10",
"7  c #000E10",
"8  c #000F10",
"9  c #001010",
"0  c #011010",
"q  c #031010",
"w  c #041110",
"e  c #051110",
"r  c #0C1210",
"t  c #141410",
"y  c #291F0C",
"u  c #2C1C12",
"i  c #2B200C",
"p  c #2F220C",
"a  c #2D200E",
"s  c #32230C",
"d  c #30210E",
"f  c #37250D",
"g  c #35240E",
"h  c #38250D",
"j  c #38260D",
"k  c #39260D",
"l  c #3D2512",
"z  c #4A2F0B",
"x  c #503700",
"c  c #543800",
"v  c #5B3C00",
"b  c #5A3D00",
"n  c #5B3D00",
"m  c #5C3D00",
"M  c #5C3E00",
"N  c #5D3E00",
"B  c #5E3E00",
"V  c #5E3F00",
"C  c #5D3A08",
"Z  c #422910",
"A  c #4E2F10",
"S  c #553016",
"D  c #593216",
"F  c #5D3318",
"G  c #603E00",
"H  c #603517",
"J  c #603518",
"K  c #613618",
"L  c #623618",
"P  c #633718",
"I  c #683A18",
"U  c #614000",
"Y  c #624100",
"T  c #644100",
"R  c #654300",
"E  c #664300",
"W  c #674300",
"Q  c #674106",
"!  c #684203",
"~  c #6B4303",
"^  c #694400",
"/  c #6A4500",
"(  c #6C4600",
")  c #6D4600",
"_  c #6E4600",
"`  c #6E4700",
"'  c #684105",
"]  c #694205",
"[  c #6B4305",
"{  c #6C4404",
"}  c #714700",
"|  c #704701",
" . c #714701",
".. c #724700",
"X. c #724703",
"o. c #714900",
"O. c #734801",
"+. c #744900",
"@. c #754900",
"#. c #764901",
"$. c #754A00",
"%. c #764A00",
"&. c #774B00",
"*. c #784B00",
"=. c #794B00",
"-. c #794B02",
";. c #794C00",
":. c #7A4C00",
">. c #7B4C01",
",. c #7C4E00",
"<. c #7E4F00",
"1. c #7A4B05",
"2. c #724117",
"3. c #754316",
"4. c #7C4910",
"5. c #7A4518",
"6. c #804E06",
"7. c #86500E",
"8. c #995B0E",
"9. c #995B0F",
"0. c #804918",
"q. c #814A18",
"w. c #824B18",
"e. c #834B18",
"r. c #844B19",
"t. c #854C19",
"y. c #895110",
"u. c #8A5210",
"i. c #8B5210",
"p. c #8B5211",
"a. c #8C5211",
"s. c #8F5510",
"d. c #905511",
"f. c #9C5D11",
"g. c #A15F11",
"h. c #A16011",
"j. c #A26011",
"k. c #A46111",
"l. c #A76311",
"z. c #A46112",
"x. c #AA601F",
"c. c #9C5622",
"v. c #A25A21",
"b. c #A95C25",
"n. c #AA5D25",
"m. c #AE6025",
"M. c #AF6025",
"N. c #AF6125",
"B. c #B06224",
"V. c #B16224",
"C. c #B16127",
"Z. c #B36326",
"A. c #B26227",
"S. c #B46326",
"D. c #B56524",
"F. c #B66524",
"G. c #B66624",
"H. c #B86625",
"J. c #B96725",
"K. c #BA6825",
"L. c #BB6925",
"P. c #BC6925",
"I. c #BD6729",
"U. c #BD6829",
"Y. c #BF6829",
"T. c #BE682A",
"R. c #C26D24",
"E. c #C1692B",
"W. c #C26A2B",
"Q. c #C36B2B",
"!. c #C46B2B",
"~. c #C56C2B",
"^. c #C66D2B",
"/. c #C76D2B",
"(. c #C86E2A",
"). c #C96F2B",
"_. c #CA6F2D",
"`. c #CE7623",
"'. c #CD702C",
"]. c #CF722C",
"[. c #D27922",
"{. c #D87D21",
"}. c #DB7D26",
"|. c #D17529",
" X c #D2762A",
".X c #D3762A",
"XX c #D6782B",
"oX c #D9792B",
"OX c #E08125",
"+X c #E58427",
"@X c #E68427",
"#X c #E78527",
"$X c #E98627",
"%X c #EA8726",
"&X c #EB8727",
"*X c #EB8826",
"=X c #EC8826",
"-X c #EE8A26",
";X c #EF8B26",
":X c #EC8828",
">X c #ED8928",
",X c #EE8928",
"<X c #F18B27",
"1X c #F28C27",
"2X c #F38D27",
"3X c #F38C2B",
"4X c #F58C2B",
"5X c #F58D2B",
"6X c #FB8F2C",
"7X c #FF932B",
"8X c #FF942B",
"9X c #FF952B",
"0X c #FF962B",
"qX c #FF972B",
"wX c #FC912C",
"eX c #FF952C",
"rX c #FF972C",
"tX c #FF972D",
"yX c #FF982C",
"uX c #FF982D",
"iX c #FF992D",
"pX c #FF9A2D",
"aX c #FF9B2D",
"sX c #FF9C2D",
"dX c #FF9D2E",
"fX c #FF9C2F",
"gX c #FF9D2F",
"hX c #FF9E2E",
/* pixels */
"9 9 9 9 9 9 9 9 9 9 9 9 9 9 9 9 9 9 9 9 9 9 9 9 9 9 9 9 9 9 9 9 9 9 9 9 9 9 9 9 9 9 9 9 9 9 9 9 9 9 9 9 9 9 9 9 9 9 9 9 9 9 9 9 ",
"9 9 9 9 9 9 9 9 9 9 9 9 9 9 9 9 9 9 9 9 9 9 9 9 9 9 9 9 9 9 9 9 9 9 9 9 9 9 9 9 9 9 9 9 9 9 9 9 9 9 9 9 9 9 9 9 9 9 9 9 9 9 9 9 ",
"9 9 9 9 9 9 9 9 9 9 9 9 9 9 9 9 9 9 9 9 9 9 9 9 9 9 9 9 9 9 9 9 9 9 9 9 9 9 9 9 9 9 9 9 9 9 9 9 9 9 9 9 9 9 9 9 9 9 9 9 9 9 9 9 ",
"9 9 9 9 9 9 9 9 9 9 9 9 9 9 9 9 9 9 9 9 9 9 9 9 9 9 9 9 9 9 9 9 9 9 9 9 9 9 9 9 9 9 9 9 9 9 9 9 9 9 9 9 9 9 9 9 9 9 9 9 9 9 9 9 ",
"9 9 9 9 9 9 9 9 9 9 9 9 9 9 9 9 9 9 9 9 9 9 9 9 9 9 9 9 9 9 9 9 9 9 9 9 9 9 9 9 9 9 9 9 9 9 9 9 9 9 9 9 9 9 9 9 9 9 9 9 9 9 9 9 ",
"9 9 9 9 9 9 9 9 9 9 9 9 9 9 9 9 9 9 9 9 9 9 9 9 9 9 9 9 9 9 9 9 9 9 9 9 9 9 9 9 9 9 9 9 9 9 9 9 9 9 9 9 9 9 9 9 9 9 9 9 9 9 9 9 ",
"9 9 9 9 9 9 9 9 9 9 9 9 9 9 9 9 9 9 9 9 9 9 9 9 9 9 9 9 9 9 9 9 9 9 9 9 9 9 9 9 9 9 9 9 9 9 9 9 9 9 9 9 9 9 9 9 9 9 9 9 9 9 9 9 ",
"9 9 9 9 9 9 9 9 9 9 9 9 9 9 9 9 9 9 9 9 9 9 9 9 9 9 9 9 9 9 9 9 9 9 9 9 9 9 9 9 9 9 9 9 9 9 9 9 9 9 9 9 9 9 9 9 9 9 9 9 9 9 9 9 ",
"9 9 9 9 9 9 9 9 9 9 9 9 9 9 9 9 9 9 9 9 9 9 9 9 9 9 9 9 9 9 9 9 9 9 9 9 9 9 9 9 9 9 9 9 9 9 9 9 9 9 9 9 9 9 9 9 9 9 9 9 9 9 9 9 ",
"9 9 9 9 9 9 9 9 9 9 9 9 9 9 9 9 9 9 9 9 9 9 9 9 9 9 9 9 9 9 9 9 9 9 9 9 9 9 9 9 9 9 0 8 7 6 6 6 6 6 6 6 6 6 6 6 6 6 6 7 8 0 9 9 ",
"9 9 9 9 9 9 9 9 9 9 9 9 9 9 9 9 9 9 9 9 9 9 9 9 9 9 9 9 9 9 9 9 9 9 9 9 9 9 9 9 9 0 w 6 < ; ; ; ; ; ; ; ; ; ; ; ; ; ; < 6 w 0 9 ",
"9 9 9 9 9 9 9 9 9 9 9 9 9 9 9 9 9 9 9 9 9 9 9 9 9 9 9 9 9 9 9 9 9 9 9 9 9 9 9 9 9 8 6 = d k h f f f f f f f f f f f k d = 6 8 9 ",
"9 9 9 9 9 9 9 9 9 9 9 9 9 9 9 9 9 9 9 9 9 9 9 9 9 9 9 9 9 9 9 9 9 9 9 9 9 9 9 9 9 7 < d C { ] ' ' ' ' ' ' ' ' ' ' ] { C d < 7 9 ",
"9 9 9 9 9 9 9 9 9 9 9 9 9 9 9 9 9 9 9 9 9 9 9 9 9 9 9 9 9 9 9 9 9 9 9 9 9 9 9 9 9 6 ; k { <.>.*.%.@.$.$.$.$.@.%.&.;.,.~ j ; 6 9 ",
"9 9 9 9 9 9 9 9 9 9 9 9 9 9 9 9 9 9 9 9 9 9 9 9 9 9 9 9 9 9 9 9 9 9 9 9 9 9 9 9 9 6 ; h ] >.-.} T m B B B B N U ^ ` o.G s : 6 9 ",
"9 9 9 9 9 9 9 9 9 9 9 9 9 9 9 9 9 9 9 9 9 9 9 9 9 9 9 9 9 9 9 9 9 9 9 9 9 9 9 9 9 6 ; f ' =.} 6.8.z.h.g.g.g.j.f.s.y.s.4.Z - 5 9 ",
"9 9 9 9 9 9 9 9 9 9 9 9 9 9 9 9 9 9 9 9 9 9 9 9 9 9 9 9 9 9 9 9 9 9 9 9 9 9 9 9 9 6 ; f ' %.T 9.{.<X*X%X%X*X-XOXR.V.K.v.D X & 9 ",
"9 9 9 9 9 9 9 9 9 9 9 9 9 9 9 9 9 9 9 9 9 9 9 9 9 9 0 8 7 6 6 6 6 6 6 6 6 6 6 6 6 3 ; g ' $.m z.<XfXuXtXtXuXpX6XXXW.'.A.L . $ 9 ",
"9 9 9 9 9 9 9 9 9 9 9 9 9 9 9 9 9 9 9 9 9 9 9 9 9 0 w 6 < ; ; ; ; ; ; ; ; ; ; ; ; ; , a Q %.B h.*XuXeX8X8X8XrX4X XT.).M.J . % 9 ",
"9 9 9 9 9 9 9 9 9 9 9 9 9 9 9 9 9 9 9 9 9 9 9 9 9 8 6 = d k h f f f f f f f f f f g a z [ +.B g.%XtX8X7X7X8X0X3X|.U.(.m.H . % 9 ",
"9 9 9 9 9 9 9 9 9 9 9 9 9 9 9 9 9 9 9 9 9 9 9 9 9 7 < d C { ] ' ' ' ' ' ' ' ' ' ' ' Q [ X...N g.%XtX8X7X7X8X0X3X|.U.(.m.H . % 9 ",
"9 9 9 9 9 9 9 9 9 9 9 9 9 9 9 9 9 9 9 9 9 9 9 9 9 6 ; k { <.>.*.%.@.$.$.$.$.@.%.&.*.*.&.#.| N g.%XtX8X7X7X8X0X3X|.U.(.m.H . % 9 ",
"9 9 9 9 9 9 9 9 9 9 9 9 9 9 9 9 9 9 9 9 9 9 9 9 9 6 ; h ] >.-.} T m B B B B N U ^ ) ( ` O. .N g.%XtX8X7X7X8X0X3X|.U.(.m.H . % 9 ",
"9 9 9 9 9 9 9 9 9 9 9 9 9 9 9 9 9 9 9 9 9 9 9 9 9 6 ; f ' =.} 6.8.z.h.g.g.g.j.f.s.y.p.7.1._ M g.%XtX8X7X7X8X0X3X|.U.(.m.H . % 9 ",
"9 9 9 9 9 9 9 9 9 9 9 9 9 9 9 9 9 9 9 9 9 9 9 9 9 6 ; f ' %.T 9.{.<X*X%X%X*X-XOXR.B.H.x.7.^ n g.%XtX8X7X7X8X0X3X|.U.(.m.H . % 9 ",
"9 9 9 9 9 9 9 9 9 9 0 8 7 6 6 6 6 6 6 6 6 6 6 6 6 3 ; g ' $.m z.<XfXuXtXtXuXpX6XXXE._.J.a.R b g.%XtX8X7X7X8X0X3X|.U.(.m.H . % 9 ",
"9 9 9 9 9 9 9 9 9 0 w 6 < ; ; ; ; ; ; ; ; ; ; ; ; ; , a Q %.B h.*XuXeX8X8X8XrX4X XT.^.F.i.E b g.%XtX8X7X7X8X0X3X|.U.(.m.H . % 9 ",
"9 9 9 9 9 9 9 9 9 8 6 = d k h f f f f f f f f f f g a z [ +.B g.%XtX8X7X7X8X0X3X|.I.~.D.u.E b g.%XtX8X7X7X8X0X3X|.U.(.m.H . % 9 ",
"9 9 9 9 9 9 9 9 9 7 < d C { ] ' ' ' ' ' ' ' ' ' ' ' Q [ X...N g.%XtX8X7X7X8X0X3X|.I.~.D.u.E b g.%XtX8X7X7X8X0X3X|.U.(.m.H . % 9 ",
"9 9 9 9 9 9 9 9 9 6 ; k { <.>.*.%.@.$.$.$.$.@.%.&.*.*.&.#.| N g.%XtX8X7X7X8X0X3X|.I.~.D.u.E b g.%XtX8X7X7X8X0X3X|.U.(.m.H . % 9 ",
"9 9 9 9 9 9 9 9 9 6 ; h ] >.-.} T m B B B B N U ^ ) ( ` O. .N g.%XtX8X7X7X8X0X3X|.I.~.D.u.E b g.%XtX8X7X7X8X0X3X|.U.(.m.H . % 9 ",
"9 9 9 9 9 9 9 9 9 6 ; f ' =.} 6.8.z.h.g.g.g.j.f.s.y.p.7.1._ M g.%XtX8X7X7X8X0X3X|.I.~.D.u.E b g.%XtX8X7X7X8X0X3X|.U.(.m.H . % 9 ",
"9 9 9 9 9 9 9 9 9 6 ; f ' %.T 9.{.<X*X%X%X*X-XOXR.B.H.x.7.^ n g.%XtX8X7X7X8X0X3X|.I.~.D.u.E b g.%XtX8X7X7X8X0X3X|.U.(.m.H . % 9 ",
"9 9 0 8 7 6 6 6 6 3 ; g ' $.m z.<XfXuXtXtXuXpX6XXXE._.J.a.R b g.%XtX8X7X7X8X0X3X|.I.~.D.u.E b g.%XtX8X7X7X8X0X3X|.U.(.m.H . % 9 ",
"9 0 w 6 < ; ; ; ; ; , a Q %.B h.*XuXeX8X8X8XrX4X XT.^.F.i.E b g.%XtX8X7X7X8X0X3X|.I.~.D.u.E b g.%XtX8X7X7X8X0X3X|.U.(.m.H . % 9 ",
"9 8 6 = d k h f f g a z [ +.B g.%XtX8X7X7X8X0X3X|.I.~.D.u.E b g.%XtX8X7X7X8X0X3X|.I.~.D.u.E b g.%XtX8X7X7X8X0X3X|.U.(.m.H . % 9 ",
"9 7 < d C { ] ' ' ' Q [ X...N g.%XtX8X7X7X8X0X3X|.I.~.D.u.E b g.%XtX8X7X7X8X0X3X|.I.~.D.u.E b g.%XtX8X7X7X8X0X3X|.U.(.m.H . % 9 ",
"9 6 ; f ! :.%.%.&.*.*.&.#.| N g.%XtX8X7X7X8X0X3X|.I.~.D.u.E b g.%XtX8X7X7X8X0X3X|.I.~.D.u.E b g.%XtX8X7X7X8X0X3X|.U.(.m.H . % 9 ",
"9 7 1 i c Y B U ^ ) ( ` O. .N g.%XtX8X7X7X8X0X3X|.I.~.D.u.E b g.%XtX8X7X7X8X0X3X|.I.~.D.u.E b g.%XtX8X7X7X8X0X3X|.U.(.m.H . % 9 ",
"9 4 - A d.l.k.f.s.y.p.7.1._ M g.%XtX8X7X7X8X0X3X|.I.~.D.u.E b g.%XtX8X7X7X8X0X3X|.I.~.D.u.E b g.%XtX8X7X7X8X0X3X|.U.(.m.H . % 9 ",
"9 @ X 3.[.2X;XOXR.B.H.x.7.^ n g.%XtX8X7X7X8X0X3X|.I.~.D.u.E b g.%XtX8X7X7X8X0X3X|.I.~.D.u.E b g.%XtX8X7X7X8X0X3X|.U.(.m.H . % 9 ",
"9 o   r.:XgXaX6XXXE._.J.a.R b g.%XtX8X7X7X8X0X3X|.I.~.D.u.E b g.%XtX8X7X7X8X0X3X|.I.~.D.u.E b g.%XtX8X7X7X8X0X3X|.U.(.m.H . % 9 ",
"9 O . q.#XpXyX4X XT.^.F.i.E b g.%XtX8X7X7X8X0X3X|.I.~.D.u.E b g.%XtX8X7X7X8X0X3X|.I.~.D.u.E b g.%XtX8X7X7X8X0X3X|.U.(.m.H . % 9 ",
"9 O . 0.+XiXqX3X|.I.~.D.u.E b g.%XtX8X7X7X8X0X3X|.I.~.D.u.E b g.%XtX8X7X7X8X0X3X|.I.~.D.u.E b g.%XtX8X7X7X8X0X3X|.U.(.m.H . % 9 ",
"9 O . 0.+XiXqX3X|.I.~.D.u.E b g.%XtX8X7X7X8X0X3X|.I.~.D.u.E b g.%XtX8X7X7X8X0X3X|.I.~.D.u.E b g.%XtX8X7X7X8X0X3X|.U.(.m.H . % 9 ",
"9 O . 0.+XiXqX3X|.I.~.D.u.E b g.%XtX8X7X7X8X0X3X|.I.~.D.u.E b g.%XtX8X7X7X8X0X3X|.I.~.D.u.E b g.%XtX8X7X7X8X0X3X|.U.(.m.H . % 9 ",
"9 O . 0.+XiXqX3X|.I.~.D.u.E b g.%XtX8X7X7X8X0X3X|.I.~.D.u.E b g.%XtX8X7X7X8X0X3X|.I.~.D.u.E b g.%XtX8X7X7X8X0X3X|.U.(.m.H . % 9 ",
"9 O . 0.+XiXqX3X|.I.~.D.u.E b g.%XtX8X7X7X8X0X3X|.I.~.D.u.E b g.%XtX8X7X7X8X0X3X|.I.~.D.u.E b g.%XtX8X7X7X8X0X3X|.U.(.m.H . % 9 ",
"9 O . 0.+XiXqX3X|.I.~.D.u.E b g.%XtX8X7X7X8X0X3X|.I.~.D.u.E b g.%XtX8X7X7X8X0X3X|.I.~.D.u.E b g.%XtX8X7X7X8X0X3X|.U.(.m.H . % 9 ",
"9 O . 0.+XiXqX3X|.I.~.D.u.E b g.%XtX8X7X7X8X0X3X|.I.~.D.u.E b g.%XtX8X7X7X8X0X3X|.I.~.D.u.E b g.%XtX8X7X7X8X0X3X|.U.(.m.H . % 9 ",
"9 O . 0.+XiXqX3X|.I.~.D.u.E b g.%XtX8X7X7X8X0X3X|.I.~.D.u.E b g.%XtX8X7X7X8X0X3X|.I.~.D.u.E b g.%XtX8X7X7X8X0X3X|.U.(.m.H . % 9 ",
"9 O . 0.+XiXqX3X|.I.~.D.u.E b g.%XtX8X7X7X8X0X3X|.I.~.D.u.E b g.%XtX8X7X7X8X0X3X|.I.~.D.u.E b g.%XtX8X7X7X8X0X3X|.U.(.m.H . % 9 ",
"9 O . 0.+XiXqX3X|.I.~.D.u.E b g.%XtX8X7X7X8X0X3X|.I.~.D.u.E b g.%XtX8X7X7X8X0X3X|.I.~.D.u.E b g.%XtX8X7X7X8X0X3X|.U.(.m.H . % 9 ",
"9 O . 0.+XiXqX3X|.I.~.D.u.E b g.%XtX8X7X7X8X0X3X|.I.~.D.u.E b g.%XtX8X7X7X8X0X3X|.I.~.D.u.E b g.%XtX8X7X7X8X0X3X|.U.(.m.H . % 9 ",
"9 O . 0.+XiXqX3X|.I.~.D.u.E b g.%XtX8X7X7X8X0X3X|.I.~.D.u.E b g.%XtX8X7X7X8X0X3X|.I.~.D.u.E b g.%XtX8X7X7X8X0X3X|.U.(.m.H . % 9 ",
"9 O . 0.+XiXqX3X|.I.~.D.u.E b g.%XtX8X7X7X8X0X3X|.I.~.D.u.E b g.%XtX8X7X7X8X0X3X|.I.~.D.u.E b g.%XtX8X7X7X8X0X3X|.U.(.m.H . % 9 ",
"9 O . 0.+XiXqX3X|.I.~.D.u.E b g.%XtX8X7X7X8X0X3X|.I.~.D.u.E b g.%XtX8X7X7X8X0X3X|.I.~.D.u.E b g.%XtX8X7X7X8X0X3X|.U.(.m.H . % 9 ",
"9 O . q.#XpXyX5X.XT./.G.i.W n j.=XuXeX8X8X9XqX5X.XT./.G.i.W n j.=XuXeX8X8X9XqX5X.XT./.G.i.W n j.=XuXeX8X8X9XqX5X.XY.).N.J . % 9 ",
"9 o   t.>XhXsXwXoXQ.'.L.s./ V l.1XdXiXuXuXiXaXwXoXQ.'.L.s./ V l.1XdXiXuXuXiXaXwXoXQ.'.L.s./ V l.1XdXiXuXuXiXaXwXoX!.].S.P . $ 9 ",
"9 @ X 2.`.,X&X}.P.b.C.v.4.v x d.[.:X#X+X+X@X$X}.P.b.C.v.4.v x d.[.:X#X+X+X@X$X}.P.b.C.v.4.v x d.[.:X#X+X+X@X$X}.P.n.Z.c.S X * 9 ",
"9 6 o l 2.t.e.5.I F K D Z p y A 3.r.q.0.0.0.w.5.I F K D Z p y A 3.r.q.0.0.0.w.5.I F K D Z p y A 3.r.q.0.0.0.w.5.I F P S u % 8 9 ",
"9 e t o X   . . . . . X - > 2 - X   . . . . . . . . . X - > 2 - X   . . . . . . . . . X - > 2 - X   . . . . . . . . . X % r q 9 ",
"9 0 e 6 @ o o + # & % & 5 7 7 4 @ o O O O O o + # & % & 5 7 7 4 @ o O O O O o + # & % & 5 7 7 4 @ o O O O O o + # & % * 8 q 0 9 ",
"9 9 9 9 9 9 9 9 9 9 9 9 9 9 9 9 9 9 9 9 9 9 9 9 9 9 9 9 9 9 9 9 9 9 9 9 9 9 9 9 9 9 9 9 9 9 9 9 9 9 9 9 9 9 9 9 9 9 9 9 9 9 9 9 "
};
