/* XPM */
static char *result[] = {
/* columns rows colors chars-per-pixel */
"64 64 205 2 ",
"   c #000000",
".  c #0C0300",
"X  c #0A0D0D",
"o  c #070909",
"O  c #160600",
"+  c #160800",
"@  c #1A0900",
"#  c #0E1111",
"$  c #161C1D",
"%  c #1A1F1F",
"&  c #220E00",
"*  c #271103",
"=  c #2C1402",
"-  c #311600",
";  c #331802",
":  c #3B1D03",
">  c #392418",
",  c #0D1E20",
"<  c #00272D",
"1  c #1B2020",
"2  c #1C2A2C",
"3  c #252C2C",
"4  c #312E2B",
"5  c #2F3737",
"6  c #313939",
"7  c #303737",
"8  c #401F05",
"9  c #4B2500",
"0  c #4E2800",
"q  c #4C260A",
"w  c #4A2608",
"e  c #522A00",
"r  c #592F00",
"t  c #51290B",
"y  c #592E0C",
"u  c #532504",
"i  c #5D3000",
"p  c #5E320C",
"a  c #623301",
"s  c #693700",
"d  c #6E3A00",
"f  c #6C3B0C",
"g  c #66370C",
"h  c #733D00",
"j  c #713D0C",
"k  c #6D3912",
"l  c #633410",
"z  c #743E14",
"x  c #663E23",
"c  c #3F413F",
"v  c #774000",
"b  c #7B4201",
"n  c #7C4216",
"m  c #784218",
"M  c #6D4834",
"N  c #003847",
"B  c #213E42",
"V  c #313F40",
"C  c #004348",
"Z  c #044A55",
"A  c #10545D",
"S  c #164145",
"D  c #254549",
"F  c #364343",
"G  c #3D4646",
"H  c #3B4849",
"J  c #304C50",
"K  c #265156",
"L  c #2E5257",
"P  c #3C5255",
"I  c #34555A",
"U  c #4C4A45",
"Y  c #434E4E",
"T  c #444845",
"R  c #465253",
"E  c #4A5555",
"W  c #4D5959",
"Q  c #44585A",
"!  c #535553",
"~  c #515B5B",
"^  c #5A5955",
"/  c #59544E",
"(  c #635E59",
")  c #814502",
"_  c #96510F",
"`  c #844719",
"'  c #874919",
"]  c #8A4B1A",
"[  c #8F4D12",
"{  c #924F12",
"}  c #924F1C",
"|  c #955112",
" . c #97521E",
".. c #9B551B",
"X. c #9F5313",
"o. c #A35A1B",
"O. c #A65B1B",
"+. c #AC600F",
"@. c #AD611A",
"#. c #B4631C",
"$. c #BB6A1F",
"%. c #8D5025",
"&. c #83543A",
"*. c #AC5E22",
"=. c #A65C24",
"-. c #AC6028",
";. c #B36224",
":. c #B96626",
">. c #BD6827",
",. c #BC6729",
"<. c #BE6928",
"1. c #B6632A",
"2. c #BA6932",
"3. c #B46935",
"4. c #BE7032",
"5. c #C46918",
"6. c #CB741F",
"7. c #C36A25",
"8. c #CA6E25",
"9. c #C46C2A",
"0. c #C96F2B",
"q. c #CC712B",
"w. c #CF7526",
"e. c #D37425",
"r. c #DD7C25",
"t. c #DC7C2A",
"y. c #D4772A",
"u. c #C06E33",
"i. c #C87130",
"p. c #D97E33",
"a. c #E17E27",
"s. c #8A5D45",
"d. c #905F44",
"f. c #8F6048",
"g. c #936349",
"h. c #B67547",
"j. c #A66C46",
"k. c #FF9404",
"l. c #F88D1F",
"z. c #FF9416",
"x. c #FF941B",
"c. c #EF881B",
"v. c #ED8725",
"b. c #E4822B",
"n. c #EA852A",
"m. c #EA8626",
"M. c #F38A24",
"N. c #FC8F24",
"B. c #F28B2C",
"V. c #F88E29",
"C. c #FF9526",
"Z. c #FF9824",
"A. c #FE932B",
"S. c #FF9B29",
"D. c #EC8B3A",
"F. c #EC8A34",
"G. c #F58E30",
"H. c #FF9531",
"J. c #FF9832",
"K. c #B28874",
"L. c #D38754",
"P. c #E98D48",
"I. c #FF9B47",
"U. c #FF9E4B",
"Y. c #F59447",
"T. c #E38E54",
"R. c #FE9D53",
"E. c #F19B5E",
"W. c #FFA04F",
"Q. c #FFA057",
"!. c #FFA158",
"~. c #C49174",
"^. c #F49D60",
"/. c #FEA465",
"(. c #FEA66A",
"). c #FFAA6D",
"_. c #FAA66C",
"`. c #FFAC73",
"'. c #FFAE79",
"]. c #F4A879",
"[. c #FFB07C",
"{. c #FFB077",
"}. c #EDA578",
"|. c #6F8489",
" X c #7E8687",
".X c #768589",
"XX c #838686",
"oX c #8A8784",
"OX c #9DA7AB",
"+X c #A6A7A7",
"@X c #A3A7A8",
"#X c #ABA7A5",
"$X c #B5B1AF",
"%X c #ABB1B4",
"&X c #ADB6B9",
"*X c #B3B3B3",
"=X c #B9B5B3",
"-X c #CEA692",
";X c #D7AF9B",
":X c #D2A892",
">X c #DAB29F",
",X c #F5AE82",
"<X c #F8AF83",
"1X c #F9B184",
"2X c None",
/* pixels */
"2X2X2X2X2X2X2X2X2X2X2X2X2X2X2X2X                                                                2X2X2X2X2X2X2X2X2X2X2X2X2X2X2X2X",
"2X2X2X2X2X2X2X2X2X2X2X2X2X2X2X2X                                                                2X2X2X2X2X2X2X2X2X2X2X2X2X2X2X2X",
"2X2X2X2X2X2X2X2X2X2X2X2X2X2X2X2X                                                                2X2X2X2X2X2X2X2X2X2X2X2X2X2X2X2X",
"2X2X2X2X2X2X2X2X2X2X2X2X2X2X2X2X                                                                2X2X2X2X2X2X2X2X2X2X2X2X2X2X2X2X",
"2X2X2X2X2X2X2X2X2X2X2X2X2X2X2X2Xt t y u q q 1 , % % % % % % % % % % $ 3 % 1 1 % , 3 > q u y t u 2X2X2X2X2X2X2X2X2X2X2X2X2X2X2X2X",
"2X2X2X2X2X2X                  l ]  .o...&.M V B V V V F c V T 6 6 G 6 6 F 6 F V B 6 M %...o...] l                   2X2X2X2X2X2X",
"2X2X2X2X2X                    k O.7.8.7.3.s.! L R R R R E E R R E R R R R R R Y J ! s.3.7.0.9.=.k                     2X2X2X2X2X",
"2X2X2X2X2X                    k *.8.e.8.2.d.! K P R R R R R R R R R E R R R R P K ! d.,.8.e.8.O.k                     2X2X2X2X2X",
"2X2X2X2X2X                    u X.5.5.5.#.&.U C D F F H F H H H G G F H H H F D C Y &.;.5.5.5.o.u                     2X2X2X2X2X",
"2X2X2X2X2X= * = * = ; : : + = m -.9.q.q.2.g.^ I W ~ ~ ~ ~ ~ W ~ ~ ~ W W ~ ~ W W I ( g.3.q.q.9.-.m = + : : ; = * = = * 2X2X2X2X2X",
"2X2X2X2Xq z ` ] ` ` ..O.@.+.@.4.L.T.T.T.L.K.XX.X XXXXXXXXXXXXXXXXXXXXXXXXXXXXX X.XoXK.L.P.T.T.L.4.@.+.#.O...' ` ] ` z w 2X2X2X2X",
"        t } 1.,.;.1.w.b.M.c.c.Y.E._.)./.,X-X#XOX@X@X+X+X+X@X+X+X+X+X+X+X+X+X+X@XOX+X-X,X/._._.E.Y.c.c.M.b.w.1.;.,.;.] t         ",
"        y ..9.q.9.0.b.A.S.x.Z.W.).{.{.`.<X>X=X&X&X=X=X&X*X=X&X=X=X=X*X*X*X=X*X=X&X=X>X1X{.[.[.).U.Z.x.S.V.n.0.9.q.9...y         ",
"        t  .<.9.,.7.a.C.x.k.z.I.).[.{.`.<X>X=X&X*X*X&X=X*X*X=X*X*X&X*X*X*X*X*X*X&X=X>X<X`.{.[./.I.z.k.x.N.a.0.,.i.<. .t         ",
"        q  .,.9.,.9.t.M.C.z.x.I./.`.`.`.,X;X$X%X%X*X*X*X%X$X$X%X*X%X*X*X*X%X*X%X&X$X;X,X).`.{./.I.x.z.Z.V.r.9.,.9.,. .q         ",
"        y =.y.t.e.t.D.Y.I.I.I.!.(.`.`.).,X;X$X%X%X*X*X*X*X$X%X$X*X*X$X*X*X*X$X%X%X*X;X].).`.{.).R.I.I.U.Y.D.t.q.t.y.*.y         ",
"        g $.M.V.c.F.Y././././.(.`.`.`.).].;X*X%X*X*X%X%X$X$X*X*X%X$X*X&X*X$X*X&X%X*X;X].).`.`.`._./.(.(.!.Y.F.M.V.n.$.g         ",
"        f 8.A.S.x.J.Q.).'.[.'.'.`.`.`.).<X;X$X%X*X&X$X*X$X%X*X*X$X%X$X*X*X%X$X*X%X*X;X,X).`.`.`.'.'.'.'.).Q.H.x.S.A.6.f         ",
"        f 6.A.S.x.J.R.`.[.[.'.'.'.'.`.`.,X>X*X&X&X=X=X&X*X*X*X=X*X*X*X=X*X*X&X*X&X*X>X<X`.`.'.'.'.'.'.'.`.Q.J.x.S.A.6.j         ",
"        v 6.A.S.C.H.R.`.[.[.'.'.'.'.`.`.<X>X=X&X=X&X=X=X*X*X=X&X*X*X=X*X*X*X=X&X&X=X>X<X`.`.`.'.'.'.'.[.`.Q.H.x.S.A.6.j         ",
"        g $.B.C.N.G.R./.`.`.(.(.).).).).].:X#XOX@X@X+X+X+X@X@X@X+X+X+X+X+X+X+X@XOX#X:X]./.).).).`.(.`.`.(.R.G.N.C.B.5.f         ",
"        p -.t.n.r.a.D.R.R.R.R.R.R.W.W.Q.E.~.oX|..XXXXXXXXXXXXXXXXXXXXXXXXXXXXX X|.oX~.E.W.R.Q.R.R.R.R.R.Y.P.t.r.b.t.-.p         ",
"        t  .<.q.9.9.t.G.H.H.H.H.H.H.S.S.D.h.( A I ~ ~ ~ ~ ~ ~ ~ ~ W ~ ~ W ~ ~ Q A ( h.D.A.A.H.H.H.H.H.H.G.a.0.9.q.<. .t         ",
"        q  .,.<.1.9.r.N.x.x.x.x.x.x.x.z.B.3.U N B F F F F H H V H F F H F F H S C U 3.M.z.x.x.x.x.x.x.x.l.a.9.1.<.:. .q         ",
"        t  .,.9.,.9.a.A.C.S.C.A.C.C.Z.Z.G.h./ Z J Y Y Y Y Y Y Y P Y Y Y Y Y Y J Z / h.B.C.C.C.C.C.A.S.S.V.a.9.,.9.<. .t         ",
"        t  .<.9.<.9.t.B.C.A.A.A.V.V.C.C.D.h./ Z P R E E E E E R E E R E E E R P Z ^ h.F.C.C.V.A.A.A.A.A.V.t.9.,.9.<. .t         ",
"        t  .<.0.9.9.y.b.n.n.n.n.n.n.m.m.p.j.! A Y E R E R E E E R E E E E R E P Z ^ j.p.v.m.a.n.b.n.n.n.a.y.9.7.0.<. .t         ",
"        t  .<.9.9.7.9.q.w.q.q.q.q.q.e.e.u.d.! K Q E E R E E E E E E R E E E R R K ^ d.u.e.e.q.e.w.q.q.e.q.9.9.9.q.<. .t         ",
"        t  .<.q.9.9.9.,.,.,.,.,.>.,.7.7.3.s.! L Q R E E E E E E E E E E E E E Q L ! s.3.7.7.,.9.,.,.,.,.9.9.9.9.q.<. .t         ",
"        t  .9.q.0.9.9.9.9.9.9.9.9.9.9.8.2.s.~ I Q E E E E E E E E E W W E E E Q I ~ s.3.8.7.9.9.9.9.9.9.9.9.9.0.q.9...t         ",
"        y  .9.q.9.9.9.7.9.9.9.9.9.9.8.8.2.=.^ I Q E E E E E E E E E E E E E E R L ! d.2.8.7.7.9.9.9.9.9.9.9.9.9.i.9. .t         ",
"        w ' *.:.;.;.;.;.;.;.*.;.;.*.#.#.=.( T B V G T H T H T H G G G G G H H H D T s.=.#.#.;.*.1.*.*.;.*.;.;.;.:.*.] w         ",
"        : j [ | | | { { { | { { { { | _ ' x 4 < 2 3 3 3 3 3 3 4 3 3 3 3 3 3 3 2 < 4 x ] _ _ | { { | { { { { { | X.[ j :         ",
"        = r h b h h h h h h h h h h b h s 9 O                                     . 9 d h h h h h h h h h h h h h h r =         ",
"        = r h h h h h h h h h h h h h b s 9 .                                     . 9 s b h h h h h h h h h h h b h r =         ",
"        ; i b ) b b b b b b b b b b ) b h u O                                     O u h ) b b b b b b b b b b b b b i ;         ",
"        = r d h h d d d d d d d h d h h s 9 O       # $ % % % % $ 3 1 1 % #       O 9 s h h d h h d d d h d h d h d e =         ",
"        @ : 9 e e 0 e e e e e e 0 e e e 9 ; .     o 3 6 F F 6 G 6 6 F F 6 3 o     . ; 9 e e 0 e 0 e e e e 9 e e e e : &         ",
"          O O + + + + O O + + + + + O + O .       X 5 Y E E R R E E E E Y 5 X       . O + + + + O + + + + + + + + O O           ",
"                                                  X 6 Y ~ W ! E E ! W W Y 6 X                                                   ",
"    .                                         .   X 7 Y W E E E E E E ~ Y 7 X   .                                               ",
"          O O + + + & * = = = * * = = = * +       X 5 Y W E E E R E E E Y 7 X       + = = = = * * = * = * & + O + O O           ",
"        @ : 0 e 9 0 f n ' ' ' ` ` ' ' ] n y +     X 7 Y E E E R E E E W Y 7 X     @ y m ' ' ` ` ' ' ' ' n k e 9 e 9 : @         ",
"        = e d h s h | -.1.1.;.:.1.;.:.:.=.n *     X 5 Y W E E E E E E E Y 7 X     * z =.:.,.;.;.1.;.1.,.*.{ h s h d r =         ",
"        ; i b b v b ..<.q.q.0.q.q.q.q.q.,.] =     X 5 Y W W E R R E E E Y 6 X     - ' ,.q.q.q.q.9.q.q.q.7.o.b h b b a =         ",
"        ; i b b v b O.<.q.0.0.9.9.9.q.q.1.] =     X 6 R W W ! W ~ E W W R 6 X     = ' ,.q.q.9.9.0.9.q.q.>.o.) h b b r ;         ",
"        ; i h b d b ..,.9.9.9.<.9.9.9.q.1.` *     X 6 Y W E R E E E W E Y 7 X     = ` ;.0.9.9.9.9.9.9.9.:...b h b h i ;         ",
"        = i h b v b X.,.9.9.9.9.<.9.9.q.;.` =     o 4 V Y H H Y T G H Y G 3 o     = ` 1.0.9.9.9.9.9.9.9.:...b h b h r ;         ",
"        = i v b d b X.:.0.<.<.0.9.>.0.0.;.` =     o $ 3 3 3 3 3 3 3 3 3 3 $ o     = ` ;.q.9.<.9.9.9.9.9.:...b v v v i -         ",
"        = i v b d b ..:.0.0.0.<.7.9.9.0.;.' =                                     * ` :.9.9.9.9.9.<.9.9.:...b v v v i =         ",
"        ; i h b d b ..,.0.0.<.<.9.9.9.q.;.n                                         n ;.q.9.9.<.9.9.0.9.,...b d v v r -         ",
"        = i h b h b ..,.<.0.<.0.9.9.9.q.;.n                                         n ;.q.q.9.9.9.9.9.0.,...b d v v r =         ",
"        = i h b v b ..:.0.0.<.0.9.9.9.9.1.} y : w t t t t t u t t t t t t t t w : y } 1.9.9.9.7.9.<.9.9.,...b v v v i -         ",
"        ; i h b v b ..:.0.<.<.<.<.9.9.9.<.*. .}  . . . . . . . . . . . . . . . .}  .*.<.9.9.9.9.9.9.q.9.:...b d v h i -         ",
"        = i h b v v X.:.9.0.0.<.9.9.9.9.9.<.<.<.<.<.<.<.<.9.>.9.<.<.<.<.,.<.<.,.<.<.9.<.9.9.9.9.9.<.9.9.:...b v b h i -         ",
"        ; i v b v b ..,.0.0.<.0.9.9.9.9.9.0.0.q.q.0.q.0.q.0.0.0.q.q.q.q.q.q.q.q.q.q.q.9.9.9.9.9.9.9.9.q.>.X.b v b v i ;         ",
"        - i b b v b o.>.w.q.i.q.0.0.0.0.0.q.q.q.q.0.q.0.q.q.0.q.q.q.0.q.0.q.q.q.q.q.0.0.0.0.0.0.0.0.q.q.>.o.) h b b i ;         ",
"        = i v v d v ..;.<.9.>.>.<.<.<.<.<.<.<.<.<.<.<.<.<.<.<.<.<.<.<.<.<.<.<.<.<.<.<.<.<.<.<.<.<.<.9.9.1...b d v h i =         ",
"        * 9 i i t i n } .. . . . . . . . . . . . . . . . . . . . . . . . . . . . . . . . . . . . . .....} n a r i i 9 *         ",
"        . @ = ; = - : t t t t t t t t t t t t t t t t t t t t t t t t t t t t t t t t t t t t t t t t t w : ; = ; = @ .         ",
"                                                                                                                                ",
"                                                                                                                                ",
"                                                                                                                                ",
"                                                                                                                                "
};
