/* XPM */
static char *result[] = {
/* columns rows colors chars-per-pixel */
"64 64 5 1 ",
"  c black",
". c #784000",
"X c #428600",
"o c #4CC900",
"O c None",
/* pixels */
"OOOOOOOOOOOOOOOOOOOOOOOOOOOOOOOOOOOOOOOOOOOOOOOOOOOOOOOOOOOOOOOO",
"OOOOOOOOOOOOOOOOOOOOOOOOOOOOOOOOOOOOOOOOOOOOOOOOOOOOOOOOOOOOOOOO",
"OOOOOOOOOOOOOOOOOOOOOOOO                OOOOOOOOOOOOOOOOOOOOOOOO",
"OOOOOOOOOOOOOOOOOOOOOOOO                OOOOOOOOOOOOOOOOOOOOOOOO",
"OOOOOOOOOOOOOOOOOOOOOO  XXooXXooXXoooooo  OOOOOOOOOOOOOOOOOOOOOO",
"OOOOOOOOOOOOOOOOOOOOOO  XXooXXooXXoooooo  OOOOOOOOOOOOOOOOOOOOOO",
"OOOOOOOOOOOOOOOOOOOO  XXXXXXooXXooXXoooooo  OOOOOOOOOOOOOOOOOOOO",
"OOOOOOOOOOOOOOOOOOOO  XXXXXXooXXooXXoooooo  OOOOOOOOOOOOOOOOOOOO",
"OOOOOOOOOOOOOOOOOO  XXXXXXXX        oooooooo  OOOOOOOOOOOOOOOOOO",
"OOOOOOOOOOOOOOOOOO  XXXXXXXX        oooooooo  OOOOOOOOOOOOOOOOOO",
"OOOOOOOOOOOOOO      ooXXoo  oooooooo  XXoooo      OOOOOOOOOOOOOO",
"OOOOOOOOOOOOOO      ooXXoo  oooooooo  XXoooo      OOOOOOOOOOOOOO",
"OOOOOOOOOOOO  oooooo  ooXXooooooooooooooXX  oooooo  OOOOOOOOOOOO",
"OOOOOOOOOOOO  oooooo  ooXXooooooooooooooXX  oooooo  OOOOOOOOOOOO",
"OOOOOOOOOO  oooooooooo  ooXXoooooooooooo  oooooooooo  OOOOOOOOOO",
"OOOOOOOOOO  oooooooooo  ooXXoooooooooooo  oooooooooo  OOOOOOOOOO",
"OOOOOOOOOO  ooooooooooooXXooXXXXooooooXXoooooooooooo  OOOOOOOOOO",
"OOOOOOOOOO  ooooooooooooXXooXXXXooooooXXoooooooooooo  OOOOOOOOOO",
"OOOOOOOO    ooooooooooXXXXXXXXXXXXooXXooXXoooooooooo    OOOOOOOO",
"OOOOOOOO    ooooooooooXXXXXXXXXXXXooXXooXXoooooooooo    OOOOOOOO",
"OOOOOO  oo  XXooooXXXXooXXooXXXXXXXXooXXooXXXXooXXoo  oo  OOOOOO",
"OOOOOO  oo  XXooooXXXXooXXooXXXXXXXXooXXooXXXXooXXoo  oo  OOOOOO",
"OOOO  oooo  ooXXXXXXooXXooXXooXXXXXXXXooXXXXXXXXooXX  oooo  OOOO",
"OOOO  oooo  ooXXXXXXooXXooXXooXXXXXXXXooXXXXXXXXooXX  oooo  OOOO",
"OOOO  XXoo  XXooXXXXXXooXXooXXXXXXXXXXXXXXXXXXooXXooXXoooo  OOOO",
"OOOO  XXoo  XXooXXXXXXooXXooXXXXXXXXXXXXXXXXXXooXXooXXoooo  OOOO",
"OOOO  XXXXXX      XXXXXXooXXooXXXXXXXXXXXXXXXX      ooXXoo  OOOO",
"OOOO  XXXXXX      XXXXXXooXXooXXXXXXXXXXXXXXXX      ooXXoo  OOOO",
"OO  oo  XX  oooooo  XXXXXXXXXXXXXXXXXXXXXXXX  oooooo  XX  oo  OO",
"OO  oo  XX  oooooo  XXXXXXXXXXXXXXXXXXXXXXXX  oooooo  XX  oo  OO",
"  oooooo  ooooooooXXXXXXXXXX        XXXXooXXoooooooooo  oooooo  ",
"  oooooo  ooooooooXXXXXXXXXX        XXXXooXXoooooooooo  oooooo  ",
"  XXoooo  ooooooooXXXXXXXX  oooooooo  XXXXooXXoooooooo  oooooo  ",
"  XXoooo  ooooooooXXXXXXXX  oooooooo  XXXXooXXoooooooo  oooooo  ",
"  XXXX  ooXXooooXXooXXXX  oooooooooooo  ooXXooXXXXoooooo  XXoo  ",
"  XXXX  ooXXooooXXooXXXX  oooooooooooo  ooXXooXXXXoooooo  XXoo  ",
"  XXXX  XXooXXXXooXXXXooXXooooooooooooooXXooXXooXXXXXXXX  XXXX  ",
"  XXXX  XXooXXXXooXXXXooXXooooooooooooooXXooXXooXXXXXXXX  XXXX  ",
"  XXXX  ooXXooXXXXXXXXXXooXXooXXooooooooXXXXXXXXXXXXXXXX  XXXX  ",
"  XXXX  ooXXooXXXXXXXXXXooXXooXXooooooooXXXXXXXXXXXXXXXX  XXXX  ",
"    XX  XXXXXXXXXXXXXXooXXooXXooXXXXXXXXXXXXXXXXXXXXXXXX    XX  ",
"    XX  XXXXXXXXXXXXXXooXXooXXooXXXXXXXXXXXXXXXXXXXXXXXX    XX  ",
"  XXXX    XX  XX  XXXXXXXXXXooXXXXXXXXXXXX  XXXXXX  XX    XXXX  ",
"  XXXX    XX  XX  XXXXXXXXXXooXXXXXXXXXXXX  XXXXXX  XX    XXXX  ",
"OO  XX  XX  XX  XXXXXXXXXXXXXXXXXXXXXXXXXXXXXXXX  XX  XX  XX  OO",
"OO  XX  XX  XX  XXXXXXXXXXXXXXXXXXXXXXXXXXXXXXXX  XX  XX  XX  OO",
"OOOO      XX  XX  XX  XX  XX  XXXX  XX  XX  XX      XX      OOOO",
"OOOO      XX  XX  XX  XX  XX  XXXX  XX  XX  XX      XX      OOOO",
"OOOOOO  XX      XX  XX      XX    XX      XX  XX  XX  XX  OOOOOO",
"OOOOOO  XX      XX  XX      XX    XX      XX  XX  XX  XX  OOOOOO",
"OOOOOOOO  XX  XX  XX      XX  XXXX  XX      XX  XX  XX  OOOOOOOO",
"OOOOOOOO  XX  XX  XX      XX  XXXX  XX      XX  XX  XX  OOOOOOOO",
"OOOOOOOOOO            OO                OO            OOOOOOOOOO",
"OOOOOOOOOO            OO                OO            OOOOOOOOOO",
"OOOOOOOOOOOOOOOOOOOOOOOOOO  ........  OOOOOOOOOOOOOOOOOOOOOOOOOO",
"OOOOOOOOOOOOOOOOOOOOOOOOOO  ........  OOOOOOOOOOOOOOOOOOOOOOOOOO",
"OOOOOOOOOOOOOOOOOOOOOOOO    ........    OOOOOOOOOOOOOOOOOOOOOOOO",
"OOOOOOOOOOOOOOOOOOOOOOOO    ........    OOOOOOOOOOOOOOOOOOOOOOOO",
"OOOOOOOOOOOOOOOOOOOOOO    ............    OOOOOOOOOOOOOOOOOOOOOO",
"OOOOOOOOOOOOOOOOOOOOOO    ............    OOOOOOOOOOOOOOOOOOOOOO",
"OOOOOOOOOOOOOOOOOOOOOO    ............    OOOOOOOOOOOOOOOOOOOOOO",
"OOOOOOOOOOOOOOOOOOOOOO    ............    OOOOOOOOOOOOOOOOOOOOOO",
"OOOOOOOOOOOOOOOOOOOOOOOO                OOOOOOOOOOOOOOOOOOOOOOOO",
"OOOOOOOOOOOOOOOOOOOOOOOO                OOOOOOOOOOOOOOOOOOOOOOOO"
};
