/* XPM */
static char *result[] = {
/* columns rows colors chars-per-pixel */
"64 64 146 2 ",
"   c #000000",
".  c #0D0403",
"X  c #050F0A",
"o  c #100703",
"O  c #110905",
"+  c #041400",
"@  c #05100A",
"#  c #001217",
"$  c #001719",
"%  c #260000",
"&  c #270D03",
"*  c #28170C",
"=  c #26160C",
"-  c #290917",
";  c #230712",
":  c #340E1E",
">  c #3A2415",
",  c #310022",
"<  c #370F20",
"1  c #380F20",
"2  c #3E002A",
"3  c #3A1022",
"4  c #002420",
"5  c #152B20",
"6  c #00392F",
"7  c #1A3326",
"8  c #1C3729",
"9  c #1E3B2C",
"0  c #203E2F",
"q  c #422A19",
"w  c #4A2F1D",
"e  c #43042C",
"r  c #440A2B",
"t  c #421327",
"y  c #441428",
"u  c #4C172D",
"i  c #4E182F",
"p  c #551C34",
"a  c #5A1E37",
"s  c #5D1E38",
"d  c #53212F",
"f  c #5F3D27",
"g  c #533521",
"h  c #5B2335",
"j  c #633D26",
"k  c #65223E",
"l  c #005F00",
"z  c #0D550F",
"x  c #0F5C11",
"c  c #006D03",
"v  c #046312",
"b  c #116514",
"n  c #136A15",
"m  c #0B7016",
"M  c #147017",
"N  c #157418",
"B  c #177B1A",
"V  c #187E1B",
"C  c #004739",
"Z  c #234333",
"A  c #264836",
"S  c #284B39",
"D  c #2B503E",
"F  c #624029",
"G  c #6A452C",
"H  c #6F492F",
"J  c #764D33",
"K  c #784E33",
"L  c #7F5336",
"P  c #6C2543",
"I  c #712746",
"U  c #732847",
"Y  c #2D5440",
"T  c #315A45",
"R  c #377057",
"E  c #3E7057",
"W  c #3A755B",
"Q  c #37755C",
"!  c #3E7C61",
"~  c #437057",
"^  c #43755B",
"/  c #447A5E",
"(  c #4C755A",
")  c #53765B",
"_  c #477D62",
"`  c #487F63",
"'  c #815336",
"]  c #875A3B",
"[  c #905F3F",
"{  c #96603F",
"}  c #8A3257",
"|  c #8E335A",
" . c #92355C",
".. c #983760",
"X. c #9A3861",
"o. c #835F41",
"O. c #8C6A49",
"+. c #936343",
"@. c #9E6946",
"#. c #94704F",
"$. c #A06743",
"%. c #A76C47",
"&. c #A96D47",
"*. c #A76F4A",
"=. c #AD734D",
"-. c #BD7E55",
";. c #00851A",
":. c #1A841E",
">. c #1B8B1F",
",. c #1E9422",
"<. c #288520",
"1. c #209C24",
"2. c #23A627",
"3. c #24AA28",
"4. c #29BD2E",
"5. c #2AC12F",
"6. c #2BC330",
"7. c #2CC931",
"8. c #498265",
"9. c #4D896B",
"0. c #508D6E",
"q. c #518F70",
"w. c #539171",
"e. c #579A77",
"r. c #599A77",
"t. c #599A78",
"y. c #A8834C",
"u. c #C18157",
"i. c #C18059",
"p. c #C8845B",
"a. c #D48E60",
"s. c #DC9464",
"d. c #E09565",
"f. c #E39867",
"g. c #E79B69",
"h. c #EA9D6A",
"j. c #EEA16D",
"k. c #F2A26E",
"l. c #F6A671",
"z. c #FDAC75",
"x. c #FFB077",
"c. c #FFB47B",
"v. c #FFB97E",
"b. c #FFBF83",
"n. c #FFC083",
"m. c None",
/* pixels */
"m.m.m.m.m.m.m.m.m.m.m.m.m.m.m.m.m.m.m.m.m.m.m.m.m.m.m.m.m.m.m.m.m.m.m.m.m.m.m.m.m.m.m.m.m.m.m.m.m.m.m.m.m.m.m.m.m.m.m.m.m.m.m.m.",
"m.m.m.m.m.m.m.m.m.m.m.m.m.m.m.m.m.m.m.m.m.m.m.m.m.m.m.m.m.m.m.m.m.m.m.m.m.m.m.m.m.m.m.m.m.m.m.m.m.m.m.m.m.m.m.m.m.m.m.m.m.m.m.m.",
"m.m.m.m.m.m.m.m.m.m.m.m.m.m.m.m.m.m.m.m.m.m.m.m.m.m.m.m.m.m.m.m.m.m.m.m.m.m.m.m.m.m.m.m.m.m.m.m.m.m.m.m.m.m.m.m.m.m.m.m.m.m.m.m.",
"m.m.m.m.m.m.m.m.m.m.m.m.m.m.m.m.m.m.m.m.m.m.m.m.m.m.m.m.m.m.m.m.m.m.m.m.m.m.m.m.m.m.m.m.m.m.m.m.m.m.m.m.m.m.m.m.m.m.m.m.m.m.m.m.",
"m.m.m.m.m.m.m.m.m.m.m.m.m.m.m.m.m.m.m.m.m.m.m.m.m.m.m.m.m.m.m.m.m.m.m.m.m.m.m.m.m.m.m.m.m.m.m.m.m.m.m.m.m.m.m.m.m.m.m.m.m.m.m.m.",
"m.m.m.m.m.m.m.m.m.m.m.m.m.m.m.m.m.m.m.m.m.m.m.m.m.m.m.m.m.m.m.m.m.m.m.m.m.m.m.m.m.m.m.m.m.m.m.m.m.m.m.m.m.m.m.m.m.m.m.m.m.m.m.m.",
"m.m.m.m.m.m.m.m.m.m.m.m.m.m.m.m.m.m.m.m.m.m.                                  m.m.m.m.m.m.m.m.m.m.m.m.m.m.m.m.m.m.m.m.m.m.m.m.m.",
"m.m.m.m.m.m.m.m.m.m.m.m.m.m.m.m.m.m.m.m.m.m.                                  m.m.m.m.m.m.m.m.m.m.m.m.m.m.m.m.m.m.m.m.m.m.m.m.m.",
"m.m.m.m.m.m.m.m.m.m.m.m.m.m.m.m.m.m.m.m.m.m.a p p p p p p p p p p p p p p a p y m.m.m.m.m.m.m.m.m.m.m.m.m.m.m.m.m.m.m.m.m.m.m.m.",
"m.m.m.m.m.m.m.m.m.m.m.m.m.m.m.m.m.m.m.    i  . . . ... . . . . . . . . . . . .a     m.m.m.m.m.m.m.m.m.m.m.m.m.m.m.m.m.m.m.m.m.m.",
"m.m.m.m.m.m.m.m.m.m.m.m.m.m.m.m.m.m.m.    y  . . . . . . . . . ... . . . ... .i     m.m.m.m.m.m.m.m.m.m.m.m.m.m.m.m.m.m.m.m.m.m.",
"m.m.m.m.m.m.m.m.m.m.m.m.m.m.m.m.m.m.3 a s P  . . . . . . . . . . . . . . . . .U s h t m.m.m.m.m.m.m.m.m.m.m.m.m.m.m.m.m.m.m.m.m.",
"m.m.m.m.m.m.m.m.m.m.m.m.m.m.m.m.    y  ..... . . . . . . . . . . . . . . . . . ... .i     m.m.m.m.m.m.m.m.m.m.m.m.m.m.m.m.m.m.m.",
"m.m.m.m.m.m.m.m.m.m.m.m.m.m.m.m.    : | .. . . . . .|  .|  . . . . . . . . . . . . .y     m.m.m.m.m.m.m.m.m.m.m.m.m.m.m.m.m.m.m.",
"m.m.m.m.m.m.m.m.m.m.m.m.m.m.m.: k P I |  . .|  . . . . . . . . . . . .|  . . . . . .U k k 3 m.m.m.m.m.m.m.m.m.m.m.m.m.m.m.m.m.m.",
"m.m.m.m.m.m.m.m.m.m.m.m.m.    : | X. . . . . . . . . . . . . . . . . . . .|  . . . ...X. .y     m.m.m.m.m.m.m.m.m.m.m.m.m.m.m.m.",
"m.m.m.m.m.m.m.m.m.m.m.m.m.    : |  . . . . . . . . . . . . . .|  . . .|  . . . . . . .X.| t     m.m.m.m.m.m.m.m.m.m.m.m.m.m.m.m.",
"m.m.m.m.m.m.m.m.m.m.m.m.m.    : |  . . . . . . .|  . . . . . . . . . . .|  . . . . . . .| t     m.m.m.m.m.m.m.m.m.m.m.m.m.m.m.m.",
"m.m.m.m.m.m.m.m.m.m.m.m.m.    : }  . . . . . . . . . . .|  . . . . . . . . . . . . . .X.| t     m.m.m.m.m.m.m.m.m.m.m.m.m.m.m.m.",
"m.m.m.m.m.m.m.m.m.m.m.m.m.    < | X. . . . . . . . . . . . . . . . . . . . . .|  . . . . .t     m.m.m.m.m.m.m.m.m.m.m.m.m.m.m.m.",
"m.m.m.m.m.m.m.m.m.m.m.m.m.m.m.m.s s P |  . . . . . . .|  . . . .|  . . . . . . . . .P s s 3 m.m.m.m.m.m.m.m.m.m.m.m.m.m.m.m.m.m.",
"m.m.m.m.m.m.m.m.m.m.m.m.m.m.m.m.    : |  . . . . . . . . . . . . . . . . . . . . . .y     m.m.m.m.m.m.m.m.m.m.m.m.m.m.m.m.m.m.m.",
"m.m.m.m.m.m.m.m.m.m.m.m.m.m.m.m.    3  . . . . . . . . . . . . . . . . . . . . . . .u     m.m.m.m.m.m.m.m.m.m.m.m.m.m.m.m.m.m.m.",
"m.m.m.m.m.m.m.m.m.m.m.m.m.m.m.m.    ; p p P  . . .|  . . . . . . . .|  . . . .P p p -     m.m.m.m.m.m.m.m.m.m.m.m.m.m.m.m.m.m.m.",
"m.m.m.m.m.m.m.m.m.m.m.m.m.m.m.m.  .       ,  . . . . . . . . . . . . . . . .X.e       .   m.m.m.m.m.m.m.m.m.m.m.m.m.m.m.m.m.m.m.",
"m.m.m.m.m.m.m.m.m.m.m.m.m.m.m.m.    . = + d  . . . . . .|  . . . . . .|  . . .h + * O     m.m.m.m.m.m.m.m.m.m.m.m.m.m.m.m.m.m.m.",
"m.m.m.m.m.m.m.m.m.m.m.m.m.m.m.m.    G s.h.p.d 2 i i i i i u u i u i u u i e r i.h.d.K     m.m.m.m.m.m.m.m.m.m.m.m.m.m.m.m.m.m.m.",
"m.m.m.m.m.m.m.m.m.m.m.m.m.m.m.m.    L z.n.h.                                  d.b.x.+.    m.m.m.m.m.m.m.m.m.m.m.m.m.m.m.m.m.m.m.",
"m.m.m.m.m.m.m.m.m.m.m.m.m.m.m.m.    J j.x.s.g > w w w w w w w w w w w w w > q a.x.l.]     m.m.m.m.m.m.m.m.m.m.m.m.m.m.m.m.m.m.m.",
"m.m.m.m.m.m.m.m.m.m.m.m.m.m.m.m.m.m.m.J G @.h.h.h.h.h.h.h.h.g.g.h.h.h.h.h.h.h.=.G J m.m.m.m.m.m.m.m.m.m.m.m.m.m.m.m.m.m.m.m.m.m.",
"m.m.m.m.m.m.m.m.m.m.m.m.m.m.m.m.m.m.m.    K x.v.c.c.c.c.c.c.c.c.c.c.c.c.c.v.c.{     m.m.m.m.m.m.m.m.m.m.m.m.m.m.m.m.m.m.m.m.m.m.",
"m.m.m.m.m.m.m.m.m.m.m.m.m.m.m.m.m.m.m.7 $ O.j.k.k.k.k.j.j.l.j.l.l.j.k.k.k.k.k.O.# 7 m.m.m.m.m.m.m.m.m.m.m.m.m.m.m.m.m.m.m.m.m.m.",
"m.m.m.m.m.m.m.m.m.m.m.m.m.m.m.m.    0 8.9.) F j F F F F F F F F f F F F F j j ) 9.8.A     m.m.m.m.m.m.m.m.m.m.m.m.m.m.m.m.m.m.m.",
"m.m.m.m.m.m.m.m.m.m.m.m.m.m.m.m.    8 0.t.!                                   Q e.q.Z     m.m.m.m.m.m.m.m.m.m.m.m.m.m.m.m.m.m.m.",
"m.m.m.m.m.m.m.m.m.m.m.m.m.m.m.m.0 8 Y 9.w.8.Z 8 0 0 9 0 0 0 9 0 0 9 0 0 0 9 9 / w.0.T 7 0 m.m.m.m.m.m.m.m.m.m.m.m.m.m.m.m.m.m.m.",
"m.m.m.m.m.m.m.m.m.m.m.m.m.    7 8.9.9.9.w.9.9.9.9.9.9.9.9.9.9.9.9.9.9.9.9.9.9.0.0.0.9.0.9.9     m.m.m.m.m.m.m.m.m.m.m.m.m.m.m.m.",
"m.m.m.m.m.m.m.m.m.m.m.m.m.    8 0.e.w.q.0.0.w.0.0.w.0.w.w.w.0.w.w.q.q.w.0.w.0.0.0.0.w.e.w.Z     m.m.m.m.m.m.m.m.m.m.m.m.m.m.m.m.",
"m.m.m.m.m.m.m.m.m.m.m.m.m.    5 ^ _ 8.9.0.0.0.0.0.0.0.0.0.0.0.0.0.0.0.0.0.0.0.0.0.0.` _ ^ 8     m.m.m.m.m.m.m.m.m.m.m.m.m.m.m.m.",
"m.m.m.m.m.m.m.m.m.m.m.m.m.      X   Z 9.0.0.0.0.0.0.0.0.0.0.9.q.0.0.0.0.0.0.0.0.q.0.S   @       m.m.m.m.m.m.m.m.m.m.m.m.m.m.m.m.",
"m.m.m.m.m.m.m.m.m.m.m.m.m.  O       4 9.e.w.0.0.0.0.0.0.0.0.q.q.0.0.0.0.0.0.0.w.e.w.6       O   m.m.m.m.m.m.m.m.m.m.m.m.m.m.m.m.",
"m.m.m.m.m.m.m.m.m.m.m.m.m.    > +.@.O.( W _ 0.0.q.q.9.0.0.0.w.9.0.0.0.0.9.q.q._ W ^ O.@.+.q     m.m.m.m.m.m.m.m.m.m.m.m.m.m.m.m.",
"m.m.m.m.m.m.m.m.m.m.m.m.m.    F k.c.h.w   A 0.0.9.q.q.0.0.0.9.q.0.0.0.0.q.q.q.D   & f.c.l.K     m.m.m.m.m.m.m.m.m.m.m.m.m.m.m.m.",
"m.m.m.m.m.m.m.m.m.m.m.m.m.    F k.v.h.    6 w.w.w.w.w.w.w.w.w.w.w.w.w.w.w.w.w.C     d.v.z.K     m.m.m.m.m.m.m.m.m.m.m.m.m.m.m.m.",
"m.m.m.m.m.m.m.m.m.m.m.m.m.    F k.x.k.=.%.#.~ E E E E ~ E E ~ E E E E ~ E E E #.&.=.j.x.l.K     m.m.m.m.m.m.m.m.m.m.m.m.m.m.m.m.",
"m.m.m.m.m.m.m.m.m.m.m.m.m.    F l.x.x.x.c.g.%                                 s.c.x.z.x.l.K     m.m.m.m.m.m.m.m.m.m.m.m.m.m.m.m.",
"m.m.m.m.m.m.m.m.m.m.m.m.m.    G l.v.x.x.v.h.%                                 s.b.c.c.c.z.L     m.m.m.m.m.m.m.m.m.m.m.m.m.m.m.m.",
"m.m.m.m.m.m.m.m.m.m.m.m.m.m.  f -.p.u.u.p.y.<.;.:.:.:.:.:.:.:.:.:.:.:.:.:.;.;.y.p.u.u.p.y.J   m.m.m.m.m.m.m.m.m.m.m.m.m.m.m.m.m.",
"m.m.m.m.m.m.m.m.m.m.m.m.m.m.m.m.          l 5.7.6.6.6.6.6.7.6.6.6.6.6.6.6.7.7.c         . m.m.m.m.m.m.m.m.m.m.m.m.m.m.m.m.m.m.m.",
"m.m.m.m.m.m.m.m.m.m.m.m.m.m.m.m.          v 4.4.4.4.4.4.5.5.7.5.6.4.4.4.4.4.4.m           m.m.m.m.m.m.m.m.m.m.m.m.m.m.m.m.m.m.m.",
"m.m.m.m.m.m.m.m.m.m.m.m.m.m.m.m.m.m.      b 4.4.4.4.5.3.:.:.:.:.V 2.6.4.4.4.4.M       m.m.m.m.m.m.m.m.m.m.m.m.m.m.m.m.m.m.m.m.m.",
"m.m.m.m.m.m.m.m.m.m.m.m.m.m.m.m.m.m.m.    b 4.6.4.4.6.,.          >.6.4.4.6.6.M     m.m.m.m.m.m.m.m.m.m.m.m.m.m.m.m.m.m.m.m.m.m.",
"m.m.m.m.m.m.m.m.m.m.m.m.m.m.m.m.m.m.m.    n 4.6.5.6.7.1.          ,.7.4.6.6.6.N     m.m.m.m.m.m.m.m.m.m.m.m.m.m.m.m.m.m.m.m.m.m.",
"m.m.m.m.m.m.m.m.m.m.m.m.m.m.m.m.m.m.m.m.m.z B V B B :.M m.m.m.m.m.n :.B B V V x m.m.m.m.m.m.m.m.m.m.m.m.m.m.m.m.m.m.m.m.m.m.m.m.",
"m.m.m.m.m.m.m.m.m.m.m.m.m.m.m.m.m.m.m.m.m.m.            m.m.m.m.m.            m.m.m.m.m.m.m.m.m.m.m.m.m.m.m.m.m.m.m.m.m.m.m.m.m.",
"m.m.m.m.m.m.m.m.m.m.m.m.m.m.m.m.m.m.m.m.m.m.            m.m.m.m.m.            m.m.m.m.m.m.m.m.m.m.m.m.m.m.m.m.m.m.m.m.m.m.m.m.m.",
"m.m.m.m.m.m.m.m.m.m.m.m.m.m.m.m.m.m.m.m.m.m.m.m.m.m.m.m.m.m.m.m.m.m.m.m.m.m.m.m.m.m.m.m.m.m.m.m.m.m.m.m.m.m.m.m.m.m.m.m.m.m.m.m.",
"m.m.m.m.m.m.m.m.m.m.m.m.m.m.m.m.m.m.m.m.m.m.m.m.m.m.m.m.m.m.m.m.m.m.m.m.m.m.m.m.m.m.m.m.m.m.m.m.m.m.m.m.m.m.m.m.m.m.m.m.m.m.m.m.",
"m.m.m.m.m.m.m.m.m.m.m.m.m.m.m.m.m.m.m.m.m.m.m.m.m.m.m.m.m.m.m.m.m.m.m.m.m.m.m.m.m.m.m.m.m.m.m.m.m.m.m.m.m.m.m.m.m.m.m.m.m.m.m.m.",
"m.m.m.m.m.m.m.m.m.m.m.m.m.m.m.m.m.m.m.m.m.m.m.m.m.m.m.m.m.m.m.m.m.m.m.m.m.m.m.m.m.m.m.m.m.m.m.m.m.m.m.m.m.m.m.m.m.m.m.m.m.m.m.m.",
"m.m.m.m.m.m.m.m.m.m.m.m.m.m.m.m.m.m.m.m.m.m.m.m.m.m.m.m.m.m.m.m.m.m.m.m.m.m.m.m.m.m.m.m.m.m.m.m.m.m.m.m.m.m.m.m.m.m.m.m.m.m.m.m.",
"m.m.m.m.m.m.m.m.m.m.m.m.m.m.m.m.m.m.m.m.m.m.m.m.m.m.m.m.m.m.m.m.m.m.m.m.m.m.m.m.m.m.m.m.m.m.m.m.m.m.m.m.m.m.m.m.m.m.m.m.m.m.m.m.",
"m.m.m.m.m.m.m.m.m.m.m.m.m.m.m.m.m.m.m.m.m.m.m.m.m.m.m.m.m.m.m.m.m.m.m.m.m.m.m.m.m.m.m.m.m.m.m.m.m.m.m.m.m.m.m.m.m.m.m.m.m.m.m.m.",
"m.m.m.m.m.m.m.m.m.m.m.m.m.m.m.m.m.m.m.m.m.m.m.m.m.m.m.m.m.m.m.m.m.m.m.m.m.m.m.m.m.m.m.m.m.m.m.m.m.m.m.m.m.m.m.m.m.m.m.m.m.m.m.m.",
"m.m.m.m.m.m.m.m.m.m.m.m.m.m.m.m.m.m.m.m.m.m.m.m.m.m.m.m.m.m.m.m.m.m.m.m.m.m.m.m.m.m.m.m.m.m.m.m.m.m.m.m.m.m.m.m.m.m.m.m.m.m.m.m."
};
