/* XPM */
static char *result[] = {
/* columns rows colors chars-per-pixel */
"64 64 129 2 ",
"   c #000000",
".  c #0A0402",
"X  c #030E04",
"o  c #00080B",
"O  c #120207",
"+  c #140308",
"@  c #011301",
"#  c #021C02",
"$  c #06110B",
"%  c #000014",
"&  c #0B1B13",
"*  c #230000",
"=  c #26160B",
"-  c #28170C",
";  c #2A190D",
":  c #210612",
">  c #260814",
",  c #2A0917",
"<  c #2C0A19",
"1  c #350E1E",
"2  c #002100",
"3  c #053406",
"4  c #043B05",
"5  c #0E2017",
"6  c #3D2714",
"7  c #36002B",
"8  c #3C1123",
"9  c #00372C",
"0  c #00392C",
"q  c #1A3427",
"w  c #1F3C2D",
"e  c #2F3829",
"r  c #442E15",
"t  c #64361E",
"y  c #5B1E38",
"u  c #5F203B",
"i  c #652F29",
"p  c #613F28",
"a  c #66223E",
"s  c #074009",
"d  c #0B4E0D",
"f  c #136A15",
"g  c #004737",
"h  c #244434",
"j  c #294C3A",
"k  c #354B39",
"l  c #2C523F",
"z  c #5D5929",
"x  c #5D573F",
"c  c #614027",
"v  c #624029",
"b  c #6A442C",
"n  c #7C5235",
"m  c #6D2644",
"M  c #712746",
"N  c #74234A",
"B  c #742948",
"V  c #7B2B4D",
"C  c #7C344A",
"Z  c #7E2751",
"A  c #7F2B51",
"S  c #325B46",
"D  c #37634D",
"F  c #38664F",
"G  c #396750",
"H  c #3F7057",
"J  c #42755B",
"K  c #43785D",
"L  c #467D61",
"P  c #885B3B",
"I  c #823C4C",
"U  c #812D50",
"Y  c #863054",
"T  c #8A3156",
"R  c #8E335A",
"E  c #93355D",
"W  c #973760",
"Q  c #983760",
"!  c #9C3963",
"~  c #864F43",
"^  c #956242",
"/  c #996543",
"(  c #9D6845",
")  c #A36E47",
"_  c #A0674A",
"`  c #A76F4A",
"'  c #AB724C",
"]  c #B1764F",
"[  c #B57951",
"{  c #BB7D54",
"}  c #1F9B24",
"|  c #1EB52B",
" . c #23A527",
".. c #23A728",
"X. c #25AD29",
"o. c #32A92B",
"O. c #27B42B",
"+. c #21BB2C",
"@. c #29BB2D",
"#. c #2CC531",
"$. c #2DCC32",
"%. c #30CD33",
"&. c #4A8265",
"*. c #4B8669",
"=. c #4F8B6C",
"-. c #518E6F",
";. c #518F70",
":. c #549373",
">. c #579977",
",. c #C18156",
"<. c #C68559",
"1. c #C7895D",
"2. c #CE8A5D",
"3. c #D68F61",
"4. c #D69062",
"5. c #DD9564",
"6. c #E19766",
"7. c #E29867",
"8. c #E59A68",
"9. c #E89C6A",
"0. c #EFA16D",
"q. c #F2A36E",
"w. c #F7A671",
"e. c #F9A771",
"r. c #FFAD75",
"t. c #FFB27A",
"y. c #FFB87E",
"u. c #FFBD81",
"i. c None",
/* pixels */
"i.i.i.i.i.i.i.i.i.i.i.i.i.i.i.i.i.i.i.i.i.i.i.i.i.i.i.i.i.i.i.i.i.i.i.i.i.i.i.i.i.i.i.i.i.i.i.i.i.i.i.i.i.i.i.i.i.i.i.i.i.i.i.i.",
"i.i.i.i.i.i.i.i.i.i.i.i.i.i.i.i.i.i.i.i.i.i.i.i.i.i.i.i.i.i.i.i.i.i.i.i.i.i.i.i.i.i.i.i.i.i.i.i.i.i.i.i.i.i.i.i.i.i.i.i.i.i.i.i.",
"i.i.i.i.i.i.i.i.i.i.i.i.i.i.i.i.i.i.i.i.i.i.i.i.i.i.i.i.i.i.i.i.i.i.i.i.i.i.i.i.i.i.i.i.i.i.i.i.i.i.i.i.i.i.i.i.i.i.i.i.i.i.i.i.",
"i.i.i.i.i.i.i.i.i.i.i.i.i.i.i.i.i.i.i.i.i.i.i.i.i.i.i.i.i.i.i.i.i.i.i.i.i.i.i.i.i.i.i.i.i.i.i.i.i.i.i.i.i.i.i.i.i.i.i.i.i.i.i.i.",
"i.i.i.i.i.i.i.i.i.i.i.i.i.i.i.i.i.i.i.i.i.i.i.i.i.i.i.i.i.i.i.i.i.i.i.i.i.i.i.i.i.i.i.i.i.i.i.i.i.i.i.i.i.i.i.i.i.i.i.i.i.i.i.i.",
"i.i.i.i.i.i.i.i.i.i.i.i.i.i.i.i.i.i.i.i.i.i.i.i.i.i.i.i.i.i.i.i.i.i.i.i.i.i.i.i.i.i.i.i.i.i.i.i.i.i.i.i.i.i.i.i.i.i.i.i.i.i.i.i.",
"i.i.i.i.i.i.i.i.i.i.i.i.i.i.i.i.i.i.i.i.i.i.i.i.i.i.i.i.i.i.i.i.i.i.i.i.i.i.i.i.i.i.i.i.i.i.i.i.i.i.i.i.i.i.i.i.i.i.i.i.i.i.i.i.",
"i.i.i.i.i.i.i.i.i.i.i.i.i.i.i.i.i.i.i.i.i.i.i.i.                                i.i.i.i.i.i.i.i.i.i.i.i.i.i.i.i.i.i.i.i.i.i.i.i.",
"i.i.i.i.i.i.i.i.i.i.i.i.i.i.i.i.i.i.i.i.i.i.i.                                    i.i.i.i.i.i.i.i.i.i.i.i.i.i.i.i.i.i.i.i.i.i.i.",
"i.i.i.i.i.i.i.i.i.i.i.i.i.i.i.i.i.i.i.i.i.i.i.+ + O O O O O O O O O O O + + O + O i.i.i.i.i.i.i.i.i.i.i.i.i.i.i.i.i.i.i.i.i.i.i.",
"i.i.i.i.i.i.i.i.i.i.i.i.i.i.i.i.i.i.i.i.i.    M Y U Y U U U Y V U U U U U U U T M     i.i.i.i.i.i.i.i.i.i.i.i.i.i.i.i.i.i.i.i.i.",
"i.i.i.i.i.i.i.i.i.i.i.i.i.i.i.i.i.i.i.i.      V ! E Q E Q E Q E Q E Q E E Q E ! V       i.i.i.i.i.i.i.i.i.i.i.i.i.i.i.i.i.i.i.i.",
"i.i.i.i.i.i.i.i.i.i.i.i.i.i.i.i.i.i.i.i.> : : V Q E E E E E E E E E E E E R R E V : : > i.i.i.i.i.i.i.i.i.i.i.i.i.i.i.i.i.i.i.i.",
"i.i.i.i.i.i.i.i.i.i.i.i.i.i.i.i.i.i.    m T Y R E E E E E R E R E E E R E E E E R Y T m     i.i.i.i.i.i.i.i.i.i.i.i.i.i.i.i.i.i.",
"i.i.i.i.i.i.i.i.i.i.i.i.i.i.i.i.i.      V ! E E E R E E E E E E E E E E E R E E E E ! V       i.i.i.i.i.i.i.i.i.i.i.i.i.i.i.i.i.",
"i.i.i.i.i.i.i.i.i.i.i.i.i.i.i.i.i.1 1 , V E E E E E E E E E R E E E E E E E E E E E Q V , 1 1 i.i.i.i.i.i.i.i.i.i.i.i.i.i.i.i.i.",
"i.i.i.i.i.i.i.i.i.i.i.i.i.i.i.    m E T R E E E E E R E E E E E E E E E E E E E E E E R T E m     i.i.i.i.i.i.i.i.i.i.i.i.i.i.i.",
"i.i.i.i.i.i.i.i.i.i.i.i.i.i.i.    M ! E E E E E E E E E E R R E E E R E E E E Q E E E E E Q M     i.i.i.i.i.i.i.i.i.i.i.i.i.i.i.",
"i.i.i.i.i.i.i.i.i.i.i.i.i.i.i.    m E E E E E E E R E R E R E E R E E E E R Y U T E E E E E m     i.i.i.i.i.i.i.i.i.i.i.i.i.i.i.",
"i.i.i.i.i.i.i.i.i.i.i.i.i.i.i.    m Q E E E R E E E E E E E E E E E E E Q U <   y E E E E Q m     i.i.i.i.i.i.i.i.i.i.i.i.i.i.i.",
"i.i.i.i.i.i.i.i.i.i.i.i.i.i.i.    M E E R E E E E E R E E E E E E W W W ! A     7 Q Q E E ! B     i.i.i.i.i.i.i.i.i.i.i.i.i.i.i.",
"i.i.i.i.i.i.i.i.i.i.i.i.i.i.i.    M Q E E E E R E E E E E E E E Y V A U A I P P ~ A U Y U Y m     i.i.i.i.i.i.i.i.i.i.i.i.i.i.i.",
"i.i.i.i.i.i.i.i.i.i.i.i.i.i.i.    M E E E E E E R E E E R E E R 8   O O   P r.t.4.    O O + O i.i.i.i.i.i.i.i.i.i.i.i.i.i.i.i.i.",
"i.i.i.i.i.i.i.i.i.i.i.i.i.i.i.    m E E E E R E E E E E E E ! R           n t.u.5.            i.i.i.i.i.i.i.i.i.i.i.i.i.i.i.i.i.",
"i.i.i.i.i.i.i.i.i.i.i.i.i.i.i.    m E E E E E R E E R E E A N C ^ ( / / ^ ' 4.5.<.^ ( n       i.i.i.i.i.i.i.i.i.i.i.i.i.i.i.i.i.",
"i.i.i.i.i.i.i.i.i.i.i.i.i.i.i.    M E E E E E E E E E E R 8   c q.t.r.r.t.6..   / t.t.2.      i.i.i.i.i.i.i.i.i.i.i.i.i.i.i.i.i.",
"i.i.i.i.i.i.i.i.i.i.i.i.i.i.      B ! Q Q Q Q Q W W W ! R %   6 q.t.r.r.t.6.    / r.y.2.      i.i.i.i.i.i.i.i.i.i.i.i.i.i.i.i.i.",
"i.i.i.i.i.i.i.i.i.i.i.i.i.i.i.    a V B B B B B B B B M C _ ) [ w.t.r.r.t.6.-   / r.t.2.      i.i.i.i.i.i.i.i.i.i.i.i.i.i.i.i.i.",
"i.i.i.i.i.i.i.i.i.i.i.i.i.i.i.i.i.                      r 0.t.t.r.r.r.r.t.6.-   / r.t.2.      i.i.i.i.i.i.i.i.i.i.i.i.i.i.i.i.i.",
"i.i.i.i.i.i.i.i.i.i.i.i.i.i.i.i.i.                        9.t.r.r.r.r.r.t.5.    ^ t.u.4.      i.i.i.i.i.i.i.i.i.i.i.i.i.i.i.i.i.",
"i.i.i.i.i.i.i.i.i.i.i.i.i.i.i.i.i.i.          / { [ [ ] { q.t.r.r.r.r.r.t.0.[ ] { ,.2.'     i.i.i.i.i.i.i.i.i.i.i.i.i.i.i.i.i.i.",
"i.i.i.i.i.i.i.i.i.i.i.i.i.i.i.i.i.i.i.i.      5.y.t.t.t.t.r.r.r.r.r.r.r.r.r.t.y.5.      i.i.i.i.i.i.i.i.i.i.i.i.i.i.i.i.i.i.i.i.",
"i.i.i.i.i.i.i.i.i.i.i.i.i.i.i.i.i.i.i.i.      6.y.t.t.t.t.t.t.t.r.r.t.t.t.t.t.y.6.      i.i.i.i.i.i.i.i.i.i.i.i.i.i.i.i.i.i.i.i.",
"i.i.i.i.i.i.i.i.i.i.i.i.i.i.i.i.i.i.i.i.i.i.i.` ,.[ [ [ [ [ [ [ [ [ [ [ [ [ ] ,.` i.i.i.i.i.i.i.i.i.i.i.i.i.i.i.i.i.i.i.i.i.i.i.",
"i.i.i.i.i.i.i.i.i.i.i.i.i.i.i.i.i.i.i.i.i.i.i.                                    i.i.i.i.i.i.i.i.i.i.i.i.i.i.i.i.i.i.i.i.i.i.i.",
"i.i.i.i.i.i.i.i.i.i.i.i.i.i.i.i.i.i.i.i.i.i.i.                                    i.i.i.i.i.i.i.i.i.i.i.i.i.i.i.i.i.i.i.i.i.i.i.",
"i.i.i.i.i.i.i.i.i.i.i.i.i.i.i.i.i.i.i.i.i.    D K J H H H H H J J J G &           i.i.i.i.i.i.i.i.i.i.i.i.i.i.i.i.i.i.i.i.i.i.i.",
"i.i.i.i.i.i.i.i.i.i.i.i.i.i.i.i.i.i.i.i.      L :.:.:.:.:.:.:.:.;.>.*.5           i.i.i.i.i.i.i.i.i.i.i.i.i.i.i.i.i.i.i.i.i.i.i.",
"i.i.i.i.i.i.i.i.i.i.i.i.i.i.i.i.i.i.i.i.      J :.-.-.-.-.-.-.;.-.;.L &           i.i.i.i.i.i.i.i.i.i.i.i.i.i.i.i.i.i.i.i.i.i.i.",
"i.i.i.i.i.i.i.i.i.i.i.i.i.i.i.i.i.i.i.i.      J :.=.D j j S j S =.;.=.K L G X     i.i.i.i.i.i.i.i.i.i.i.i.i.i.i.i.i.i.i.i.i.i.i.",
"i.i.i.i.i.i.i.i.i.i.i.i.i.i.i.i.i.i.i.i.      K :.;.0         o *.:.;.:.>.&.$     i.i.i.i.i.i.i.i.i.i.i.i.i.i.i.i.i.i.i.i.i.i.i.",
"i.i.i.i.i.i.i.i.i.i.i.i.i.i.i.i.i.i.i.i.      J :.=.k * - - * e &.;.-.-.:.L $     i.i.i.i.i.i.i.i.i.i.i.i.i.i.i.i.i.i.i.i.i.i.i.",
"i.i.i.i.i.i.i.i.i.i.i.i.i.i.i.i.i.i.i.i.      w g k 1.9.6.6.8.3.x 9 S *.:.L $     i.i.i.i.i.i.i.i.i.i.i.i.i.i.i.i.i.i.i.i.i.i.i.",
"i.i.i.i.i.i.i.i.i.i.i.i.i.i.i.i.i.i.i.i.          * 9.y.t.t.y.e.t   q -.>.L $     i.i.i.i.i.i.i.i.i.i.i.i.i.i.i.i.i.i.i.i.i.i.i.",
"i.i.i.i.i.i.i.i.i.i.i.i.i.i.i.i.i.i.i.i.          - 7.t.r.r.t.q.p   w &.;.K $     i.i.i.i.i.i.i.i.i.i.i.i.i.i.i.i.i.i.i.i.i.i.i.",
"i.i.i.i.i.i.i.i.i.i.i.i.i.i.i.i.i.i.i.i.i.i.i.    - 7.t.r.r.r.q.v   & w h w i.i.i.i.i.i.i.i.i.i.i.i.i.i.i.i.i.i.i.i.i.i.i.i.i.i.",
"i.i.i.i.i.i.i.i.i.i.i.i.i.i.i.i.i.i.i.i.i.i.i.    - 9.y.t.r.y.w.i           i.i.i.i.i.i.i.i.i.i.i.i.i.i.i.i.i.i.i.i.i.i.i.i.i.i.",
"i.i.i.i.i.i.i.i.i.i.i.i.i.i.i.i.i.i.i.i.i.i.i.    - 3.e.q.q.e.8.z 4 s @     i.i.i.i.i.i.i.i.i.i.i.i.i.i.i.i.i.i.i.i.i.i.i.i.i.i.",
"i.i.i.i.i.i.i.i.i.i.i.i.i.i.i.i.i.i.i.i.i.i.i.i.i.i.p b p c i z o.+. .3     i.i.i.i.i.i.i.i.i.i.i.i.i.i.i.i.i.i.i.i.i.i.i.i.i.i.",
"i.i.i.i.i.i.i.i.i.i.i.i.i.i.i.i.i.i.i.i.i.i.i.i.i.i.          2 | %.O.3     i.i.i.i.i.i.i.i.i.i.i.i.i.i.i.i.i.i.i.i.i.i.i.i.i.i.",
"i.i.i.i.i.i.i.i.i.i.i.i.i.i.i.i.i.i.i.i.i.i.i.i.i.i.    @ d d f O.#.X.3     i.i.i.i.i.i.i.i.i.i.i.i.i.i.i.i.i.i.i.i.i.i.i.i.i.i.",
"i.i.i.i.i.i.i.i.i.i.i.i.i.i.i.i.i.i.i.i.i.i.i.i.i.i.    3 X.@.@.@.#.X.3     i.i.i.i.i.i.i.i.i.i.i.i.i.i.i.i.i.i.i.i.i.i.i.i.i.i.",
"i.i.i.i.i.i.i.i.i.i.i.i.i.i.i.i.i.i.i.i.i.i.i.i.i.i.    4 @.$.#.#.#.O.4     i.i.i.i.i.i.i.i.i.i.i.i.i.i.i.i.i.i.i.i.i.i.i.i.i.i.",
"i.i.i.i.i.i.i.i.i.i.i.i.i.i.i.i.i.i.i.i.i.i.i.i.i.i.    3 } X... .X.} 3     i.i.i.i.i.i.i.i.i.i.i.i.i.i.i.i.i.i.i.i.i.i.i.i.i.i.",
"i.i.i.i.i.i.i.i.i.i.i.i.i.i.i.i.i.i.i.i.i.i.i.i.i.i.i.i.i.# # # # # # i.i.i.i.i.i.i.i.i.i.i.i.i.i.i.i.i.i.i.i.i.i.i.i.i.i.i.i.i.",
"i.i.i.i.i.i.i.i.i.i.i.i.i.i.i.i.i.i.i.i.i.i.i.i.i.i.i.i.i.            i.i.i.i.i.i.i.i.i.i.i.i.i.i.i.i.i.i.i.i.i.i.i.i.i.i.i.i.i.",
"i.i.i.i.i.i.i.i.i.i.i.i.i.i.i.i.i.i.i.i.i.i.i.i.i.i.i.i.i.            i.i.i.i.i.i.i.i.i.i.i.i.i.i.i.i.i.i.i.i.i.i.i.i.i.i.i.i.i.",
"i.i.i.i.i.i.i.i.i.i.i.i.i.i.i.i.i.i.i.i.i.i.i.i.i.i.i.i.i.i.i.i.i.i.i.i.i.i.i.i.i.i.i.i.i.i.i.i.i.i.i.i.i.i.i.i.i.i.i.i.i.i.i.i.",
"i.i.i.i.i.i.i.i.i.i.i.i.i.i.i.i.i.i.i.i.i.i.i.i.i.i.i.i.i.i.i.i.i.i.i.i.i.i.i.i.i.i.i.i.i.i.i.i.i.i.i.i.i.i.i.i.i.i.i.i.i.i.i.i.",
"i.i.i.i.i.i.i.i.i.i.i.i.i.i.i.i.i.i.i.i.i.i.i.i.i.i.i.i.i.i.i.i.i.i.i.i.i.i.i.i.i.i.i.i.i.i.i.i.i.i.i.i.i.i.i.i.i.i.i.i.i.i.i.i.",
"i.i.i.i.i.i.i.i.i.i.i.i.i.i.i.i.i.i.i.i.i.i.i.i.i.i.i.i.i.i.i.i.i.i.i.i.i.i.i.i.i.i.i.i.i.i.i.i.i.i.i.i.i.i.i.i.i.i.i.i.i.i.i.i.",
"i.i.i.i.i.i.i.i.i.i.i.i.i.i.i.i.i.i.i.i.i.i.i.i.i.i.i.i.i.i.i.i.i.i.i.i.i.i.i.i.i.i.i.i.i.i.i.i.i.i.i.i.i.i.i.i.i.i.i.i.i.i.i.i.",
"i.i.i.i.i.i.i.i.i.i.i.i.i.i.i.i.i.i.i.i.i.i.i.i.i.i.i.i.i.i.i.i.i.i.i.i.i.i.i.i.i.i.i.i.i.i.i.i.i.i.i.i.i.i.i.i.i.i.i.i.i.i.i.i.",
"i.i.i.i.i.i.i.i.i.i.i.i.i.i.i.i.i.i.i.i.i.i.i.i.i.i.i.i.i.i.i.i.i.i.i.i.i.i.i.i.i.i.i.i.i.i.i.i.i.i.i.i.i.i.i.i.i.i.i.i.i.i.i.i."
};
