/* XPM */
static char *result[] = {
/* columns rows colors chars-per-pixel */
"64 64 2 1 ",
"  c #357602",
". c #41C304",
/* pixels */
"................................................................",
"................................................................",
"...................  ........  ....................  ........  .",
"...................  ........  ....................  ........  .",
".  ......  ........  ........  ..  ......  ........  ........  .",
".  ......  ........  ........  ..  ......  ........  ........  .",
".  ..............................  .............................",
".  ..............................  .............................",
"................................................................",
"................................................................",
"...........................  ..............................  ...",
"...........................  ..............................  ...",
"...........  ..............................  ...................",
"...........  ..............................  ...................",
"...........  ..............................  ...................",
"...........  ..............................  ...................",
".  ....................  ........  ....................  .......",
".  ....................  ........  ....................  .......",
".......................  ..............................  .......",
".......................  ..............................  .......",
".............  ..............................  .................",
".............  ..............................  .................",
"................................................................",
"................................................................",
".  ................  ............  ................  ...........",
".  ................  ............  ................  ...........",
".  ................  ............  ................  ...........",
".  ................  ............  ................  ...........",
".........  ..................  ..........  ..................  .",
".........  ..................  ..........  ..................  .",
".........  ..............................  .....................",
".........  ..............................  .....................",
"................................................................",
"................................................................",
"...................  ........  ....................  ........  .",
"...................  ........  ....................  ........  .",
".  ......  ........  ........  ..  ......  ........  ........  .",
".  ......  ........  ........  ..  ......  ........  ........  .",
".  ..............................  .............................",
".  ..............................  .............................",
"................................................................",
"................................................................",
"...........................  ..............................  ...",
"...........................  ..............................  ...",
"...........  ..............................  ...................",
"...........  ..............................  ...................",
"...........  ..............................  ...................",
"...........  ..............................  ...................",
".  ....................  ........  ....................  .......",
".  ....................  ........  ....................  .......",
".......................  ..............................  .......",
".......................  ..............................  .......",
".............  ..............................  .................",
".............  ..............................  .................",
"................................................................",
"................................................................",
".  ................  ............  ................  ...........",
".  ................  ............  ................  ...........",
".  ................  ............  ................  ...........",
".  ................  ............  ................  ...........",
".........  ..................  ..........  ..................  .",
".........  ..................  ..........  ..................  .",
".........  ..............................  .....................",
".........  ..............................  ....................."
};
